<svg id="ba338880-cd23-4a60-b2a8-0cff65ac6476" data-name="svg8" xmlns="http://www.w3.org/2000/svg" viewBox="0 0 596.27557 433">
  <defs>
    <style>
      .f11348e1-8aed-4268-ae3a-c8d144f4fc2a {
        fill: #73adf2;
      }

      .b85c7965-e4c5-4900-835c-4d8621a2b31a {
        fill: #fff;
      }

      .a94a3c56-f9a9-4944-9302-f829a61ba1d7 {
        fill: none;
      }
    </style>
  </defs>
  <title>cropped</title>
  <g id="bdef769d-49d7-43ea-9fe7-c091269dd8bd" data-name="layer2">
    <rect id="ada48bee-ed59-4ec0-ba3d-478f1dfb10fa" data-name="rect5359" class="f11348e1-8aed-4268-ae3a-c8d144f4fc2a" x="0.5" y="-253.96463" width="595.27564" height="841.88972"/>
    <path id="e0a63744-8973-4385-b85c-bbfabd98a124" data-name="path2257" class="b85c7965-e4c5-4900-835c-4d8621a2b31a" d="M319.94469,20.95274a3.91175,3.91175,0,0,0-3.92143,3.92v5.87847a3.91293,3.91293,0,0,0,3.92143,3.92134h1.63912l-1.74319,6.71481,8.5869-6.71481h.64594a4.72463,4.72463,0,0,1,4.36373-2.93846h11.83012a3.939,3.939,0,0,0,.129-.98288V24.87269a3.91175,3.91175,0,0,0-3.92143-3.91995Zm3.25048,3.92134a2.93776,2.93776,0,1,1-2.93845,2.93707A2.93651,2.93651,0,0,1,323.19517,24.87408Zm7.51465,0a2.93776,2.93776,0,1,1-2.937,2.93707A2.93777,2.93777,0,0,1,330.70982,24.87408Zm7.51612,0a2.93776,2.93776,0,1,1-2.93846,2.93707A2.93646,2.93646,0,0,1,338.22594,24.87408Zm-3.93977,8.56777a3.91285,3.91285,0,0,0-3.92134,3.92135v5.87846a3.91974,3.91974,0,0,0,3.92134,3.92134h13.04735l8.58689,6.71481L354.17722,47.163h1.63912c2.17227,0,2.41994-3.249,2.41994-5.42136V35.86317c0-2.17235-1.64787-2.42132-3.82-2.42132Zm-30.35661,1.25556a17.03314,17.03314,0,1,0,17.03322,17.03313A17.03331,17.03331,0,0,0,303.92956,34.69741Zm73.57613.09066a17.02678,17.02678,0,1,0,1.70219.04394Q378.35848,34.76688,377.50569,34.78807ZM109.12,35.746a17.03244,17.03244,0,1,0,17.03322,17.03314A17.03273,17.03273,0,0,0,109.12,35.746Zm228.41518,1.61854a2.93776,2.93776,0,1,1-2.93707,2.93845A2.939,2.939,0,0,1,337.53518,37.36458Zm7.51612,0a2.93776,2.93776,0,1,1-2.93845,2.93845A2.9377,2.9377,0,0,1,345.0513,37.36458Zm7.51465,0a2.93776,2.93776,0,1,1-2.93846,2.93845A2.93765,2.93765,0,0,1,352.566,37.36458ZM93.597,66.96919C79.95277,67.318,75.37442,111.81,74.01644,140.2582H109.993c-1.1803-11.37059-3.83536-22.97683-3.208-34.12786A85.53625,85.53625,0,0,0,128.70491,122.5,11.17882,11.17882,0,1,0,139.303,102.81835c-24.90652-11.318-23.03738-26.00369-45.33547-35.84761-.12413-.00571-.248-.00571-.37059-.00138Zm206.81546,4.02393c-.41757-.00571-.83851.00018-1.2598.01419-5.73348.20433-9.31614,1.25521-9.69141,6.98-4.70924,21.63545-6.28833,40.96291-7.40331,62.2705h34.0737l-.25934-3.56684a11.17939,11.17939,0,0,1-11.91065-4.59955c-13.94433-19.90428-14.855-43.05654-14.143-48.01319a12.88362,12.88362,0,0,1,.20805-2.42426c.03685.35312.0904.72026.16834,1.10746,1.08453,7.75116.94439,27.36339,14.88864,47.26768a11.17888,11.17888,0,1,0,18.3091-12.82615c-10.73234-15.31944-9.36321-17.83453-11.06107-29.32467l-.58738-8.11673c.58989-6.29543-5.0685-8.691-11.332-8.76848Zm81.75878.24914c-5.75857-.07059-10.826,2.02858-10.72413,7.92919l-1.76949,19.03126a4.78121,4.78121,0,0,1,4.2319,4.71685l.08642,32.58251.00571.01419c.00008.01989-.00571.03823-.00571.05726l.00571,1.11922a4.73692,4.73692,0,0,1-.356,1.809,11.18018,11.18018,0,0,0,11.84179-6.3046c10.67058-21.83493,7.47339-41.1854,7.33593-49.01078a10.08831,10.08831,0,0,0-.15078-2.34675,11.80214,11.80214,0,0,1,.78513,2.87115c1.47589,4.785,4.18692,27.79679-6.4834,49.6319a11.17792,11.17792,0,0,1-13.6875,5.85355,4.816,4.816,0,0,1-.89646,1.06351H396.701c.40563-20.78163.10458-39.56894-2.89745-61.1601.06124-5.73677-3.432-7.05928-9.13327-7.69926-.83782-.09411-1.67339-.14654-2.49615-.15674ZM117.22644,83.33155a75.56139,75.56139,0,0,0,9.49219,9.6562l.99465-3.61666a4.70446,4.70446,0,0,1,.97406-1.81941A76.95738,76.95738,0,0,1,117.22644,83.33155Zm14.96191,3.84227a3.453,3.453,0,0,0-3.21822,2.54295l-1.144,4.15715a60.16461,60.16461,0,0,0,12.24171,7.26119.86881.86881,0,0,1,.08053.03944,12.92145,12.92145,0,0,1,3.49366,2.62651l9.38673,2.58257a2.00289,2.00289,0,0,1,1.40184,2.4682l-.35009,1.2758a2.00382,2.00382,0,0,1-2.46829,1.40331l-4.65379-1.2803a12.96277,12.96277,0,0,1-7.55271,14.4286l5.77586,1.5893a1.3048,1.3048,0,0,1,.91265,1.604l-1.32278,4.80319,12.67234,3.48638a3.45289,3.45289,0,0,0,4.254-2.41855l8.956-32.56191a3.45057,3.45057,0,0,0-2.417-4.25249L155.5644,93.44277l-2.7202,9.8877a1.3046,1.3046,0,0,1-1.604.91109l-7.15279-1.96578a1.30468,1.30468,0,0,1-.91118-1.604l2.7202-9.8877L133.22262,87.2977a3.46594,3.46594,0,0,0-1.03418-.1244Zm14.96485,3.95646-2.7202,9.8877,7.15279,1.96733,2.7202-9.8877Zm95.71141,8.34234-13.14259.03513.02552,10.25534a1.30326,1.30326,0,0,1-1.29785,1.30815l-7.42088.0199a1.30475,1.30475,0,0,1-1.30659-1.30071l-.02838-10.25691-13.14259.03513a3.45322,3.45322,0,0,0-3.45117,3.46873l.08927,33.77042a3.45313,3.45313,0,0,0,3.46874,3.45126l13.14259-.03512v-.00156l-.01419-4.98052a1.30453,1.30453,0,0,1,1.3008-1.30954l7.418-.01989a1.30256,1.30256,0,0,1,1.30807,1.29932l.01133,4.98347,13.14553-.03374a3.45315,3.45315,0,0,0,3.4497-3.47012l-.08789-33.769a3.454,3.454,0,0,0-3.46873-3.45126Zm126.27244,0-13.14406.03513.02837,10.25534a1.30413,1.30413,0,0,1-1.29932,1.3066l-7.41941.01989a1.30415,1.30415,0,0,1-1.30668-1.30071l-.02924-10.25535-13.14259.03513a3.45322,3.45322,0,0,0-3.45117,3.46873l.08927,33.77042a3.45188,3.45188,0,0,0,3.46874,3.44971l13.14259-.03513-.01133-4.98191a1.30428,1.30428,0,0,1,1.30079-1.30815l7.41794-.01989a1.30422,1.30422,0,0,1,1.30806,1.29932l.01133,4.98347,13.14406-.03374a3.45306,3.45306,0,0,0,3.45118-3.46874l-.08988-33.769a3.45314,3.45314,0,0,0-3.46874-3.45127Zm-140.72024.03807-7.41793.01989.02837,10.25535,7.41794-.0199Zm126.27244,0-7.41793.01989.02837,10.25535,7.41793-.0199ZM230.743,112.65328a2.00391,2.00391,0,0,1,2.01275,2.00245l.00286,1.32424a2.00272,2.00272,0,0,1-2.001,2.01266l-12.00295.03235a2.0027,2.0027,0,0,1-2.01127-2.00245l-.00571-1.32424a2.004,2.004,0,0,1,2.00245-2.01266Zm126.27244,0a2.00391,2.00391,0,0,1,2.01275,2.00245L359.031,115.98a2.00271,2.00271,0,0,1-2.001,2.01266l-12.00295.031a2.00133,2.00133,0,0,1-2.01119-2.0009l-.00571-1.32424a2.00271,2.00271,0,0,1,2.001-2.01266Zm-236.3467,7.23782-.65624,2.3862a3.4529,3.4529,0,0,0,2.41846,4.25387l12.67381,3.48483,1.21585-4.42239a12.94917,12.94917,0,0,1-8.51077-1.47943C125.2379,122.72869,122.86572,121.31777,120.66871,119.8911Zm17.0141,5.66756-1.3213,4.80319,7.15141,1.96872,1.32277-4.80475Zm90.82769,9.65915-7.418.0199.01133,4.98191,7.41794-.0199Zm126.27244,0-7.41794.0199.01134,4.98191,7.4194-.0199ZM49.3953,142.1802a8.4281,8.4281,0,0,0-8.146,8.15774v16.07222a8.147,8.147,0,0,0,8.146,8.165H407.52605a8.14837,8.14837,0,0,0,8.14744-8.165V150.33794a8.42937,8.42937,0,0,0-8.14744-8.15774H49.3953Zm17.20753,5.40527a10.79221,10.79221,0,1,1-10.793,10.7929A10.793,10.793,0,0,1,66.60283,147.58547Zm35.63091,0a10.79221,10.79221,0,1,1-10.79152,10.7929A10.79356,10.79356,0,0,1,102.23374,147.58547Zm35.99415,0a10.79221,10.79221,0,1,1-10.79152,10.7929A10.79428,10.79428,0,0,1,138.22789,147.58547Zm35.63229,0a10.79221,10.79221,0,1,1-10.79151,10.7929A10.79356,10.79356,0,0,1,173.86018,147.58547Zm35.99415,0a10.79221,10.79221,0,1,1-10.793,10.7929A10.79308,10.79308,0,0,1,209.85433,147.58547Zm35.6323,0a10.79221,10.79221,0,1,1-10.79152,10.7929A10.79356,10.79356,0,0,1,245.48663,147.58547Zm35.99415,0a10.79221,10.79221,0,1,1-10.793,10.7929A10.793,10.793,0,0,1,281.48078,147.58547Zm35.63229,0a10.79221,10.79221,0,1,1-10.79152,10.7929A10.79355,10.79355,0,0,1,317.11307,147.58547Zm35.99268,0a10.79221,10.79221,0,1,1-10.79152,10.7929A10.79356,10.79356,0,0,1,353.10575,147.58547Zm35.63376,0a10.79221,10.79221,0,1,1-10.793,10.7929A10.7923,10.7923,0,0,1,388.73951,147.58547Zm53.3452,5.32621a3.4939,3.4939,0,0,0-2.66458,1.23635c5.86878,12.61594,4.18666,21.04755,1.87642,27.02637l-.06013-.02924a3.442,3.442,0,0,0-3.71632,1.50417l-18.1655,28.4693a3.45133,3.45133,0,0,0,1.05469,4.77689l11.08157,7.07225,2.67919-4.19972a1.30517,1.30517,0,0,1,1.80176-.4l6.25338,3.99176a1.30312,1.30312,0,0,1,.39551,1.8002l-2.67772,4.2011,11.07863,7.06932A3.45308,3.45308,0,0,0,455.8,234.37573l1.93065-3.0279a14.55636,14.55636,0,0,1-.36765-9.142,9.98018,9.98018,0,0,1,7.25686-7.27451c1.50011-.32907,2.90437-.67561,4.2466-1.0341l5.09913-7.99077a3.45123,3.45123,0,0,0-1.05469-4.77689l-29.03608-18.52884c2.47521-6.41739,4.51564-16.13415-1.79008-29.68938Zm65.1343,9.51848a16.981,16.981,0,0,0-14.29252,7.41655c7.5566-3.48777,16.35189-4.81166,22.60692-5.099a17.02952,17.02952,0,0,0-8.3144-2.31733Zm9.28258,2.87358c-6.48963.38184-16.35051,1.92321-24.30963,5.69074a13.7,13.7,0,0,0-1.5168,3.5876c8.50765-4.15231,14.53707-6.183,28.52094-7.42728A16.639,16.639,0,0,0,516.50159,165.30374Zm3.39123,3.08966c-14.73163.87251-20.53172,2.94693-29.59864,7.66552a17.08262,17.08262,0,1,0,29.59864-7.66534ZM491.5686,169.7c-2.6279-.01142-8.2811,2.67616-9.126,3.394a.51452.51452,0,0,0-.13183.71922l3.24165,4.67429a.51738.51738,0,0,0,.72069.13184l3.07764-1.49414a15.99231,15.99231,0,0,1,2.49606-7.412c-.08841-.00848-.18088-.01142-.27838-.01142Zm-9.59037,4.87066-1.21438.8379a.34335.34335,0,0,0-.08789.47908l2.15332,3.10541a.34569.34569,0,0,0,.48045.08789l1.21438-.8379Zm-1.82374,1.8002-35.291,5.31306,27.31642,17.4302,9.64453-20.33647Zm-237.15233,3.41165a14.02426,14.02426,0,0,0-13.80618,11.581c5.16141-2.23325,10.365-4.68468,15.82913-6.29006a2.30743,2.30743,0,0,1,.52294-.08928h.00432a1.17645,1.17645,0,0,1,.50831.08928,6.31,6.31,0,0,1,2.64407.977,15.70007,15.70007,0,0,1,1.53956,1.059c.02552.02267.05156.04222.07621.06575a2.721,2.721,0,0,1,.78514,1.06645,2.04448,2.04448,0,0,1-.10684,1.48532,2.08483,2.08483,0,0,1-2.75393.96541l-2.893-1.39154-16.19973,6.602a14.01732,14.01732,0,1,0,13.85151-16.12049Zm2.61622,6.31636v.00155a1.43421,1.43421,0,0,0-.27691.04533c-6.405,1.88169-12.55028,5.024-18.77927,7.56586l-.41013-1.22614a1.30772,1.30772,0,0,0-1.56447-.84085l-.22284.06a1.13267,1.13267,0,0,0-.79248,1.47373l2.70557,8.10358a1.30868,1.30868,0,0,0,1.56447.84223l.22423-.06a1.13431,1.13431,0,0,0,.79249-1.47511l-1.69917-5.08883a.58555.58555,0,0,0,.06748-.0199l18.16256-7.40184,3.34132,1.60695a.94166.94166,0,0,0,1.25979-.4424c.22673-.47146.10121-.73755-.44239-1.25971,0,0-2.47608-1.97356-3.93017-1.88376Zm253.59073,10.56158c-4.07281,1.73151-6.73133,3.61891-9.08794,4.349-3.28508,1.01784-6.09482,1.57771-13.90134-2.5137a10.24186,10.24186,0,0,0-1.39457-.6123l-1.06784,2.24848a4.78009,4.78009,0,0,1,1.3066,6.47467l-4.314,6.76169c9.48033-2.764,15.10178-6.22258,20.69971-9.47748a64.36654,64.36654,0,0,1,12.24612-5.85061,19.01194,19.01194,0,0,1-4.48683-1.38Zm18.29734.523c-24.2874,2.057-25.22357,13.57063-52.4912,19.55134-6.11134,1.34051-7.88784,9.57679-5.03174,15.14349s8.28421,5.77344,13.79589,2.8125a143.217,143.217,0,0,1,15.87593-7.1835c-1.14508,10.04271-4.83718,18.60288-6.22553,29.72606h40.77675c3.95024-26.13535,4.23623-56.68444-6.70027-60.04989Zm-73.166,1.7182a2.01335,2.01335,0,0,1,1.13081.31644l10.11763,6.45563a2.00261,2.00261,0,0,1,.6123,2.7715l-.712,1.11628a2.00293,2.00293,0,0,1-2.7715.61368L442.6,203.71817a2.00261,2.00261,0,0,1-.6123-2.7715l.71334-1.11628a1.99964,1.99964,0,0,1,1.63912-.92873Zm-186.22413,6.78228c-18.362,8.10653-16.82292,20.19927-37.333,29.51948a9.20507,9.20507,0,1,0,8.72608,16.207,70.44294,70.44294,0,0,0,18.05132-13.481c.36246,6.44369-.61048,12.88653-1.56006,19.30375h33.51124c-3.39564-23.10416-11.34957-51.87813-21.39549-51.5494Zm-14.91649,8.70273a138.51685,138.51685,0,0,0-18.95652,7.66257l-9.04244,11.00969c-.04646.05692-.07284.08564-.0981.11142a5.96374,5.96374,0,0,0,2.39649,2.54883,10.65576,10.65576,0,0,1,2.58836-1.86906c.02267-.01142.04369-.02267.066-.03236,10.01641-4.55162,14.48491-9.63146,18.94925-14.82133,1.32035-1.535,2.64528-3.08258,4.09721-4.60993Zm142.166,2.06249-13.14406.03512.02552,10.254a1.30257,1.30257,0,0,1-1.3008,1.30815l-7.418.0199a1.30236,1.30236,0,0,1-1.30807-1.30071l-.02837-10.25535-13.14406.03512a3.45187,3.45187,0,0,0-3.44971,3.46874l.08928,33.77041a3.4506,3.4506,0,0,0,3.46726,3.44971l13.14406-.03374-.01418-4.98346a1.30422,1.30422,0,0,1,1.30079-1.3066l7.41794-.01989a1.30262,1.30262,0,0,1,1.30806,1.30226l.01134,4.98191,13.144-.03512a3.45187,3.45187,0,0,0,3.44971-3.46874l-.08789-33.77041a3.45188,3.45188,0,0,0-3.46874-3.44971Zm-14.4478.03806-7.41794.0199.02838,10.25534,7.41793-.01989Zm-206.46528.00848a3.45063,3.45063,0,0,0-3.46432,3.45559l-.04395,33.77041a3.45279,3.45279,0,0,0,3.45559,3.46441l13.13818.017.00847-4.98191a1.30417,1.30417,0,0,1,1.30513-1.30227l7.41949.00848a1.30366,1.30366,0,0,1,1.30227,1.30659l-.00848,4.98191,13.147.017a3.45064,3.45064,0,0,0,3.46433-3.45559l.01418-11.19879L192.362,232.40079a4.45038,4.45038,0,0,1,5.80511-6.74717l6.03807,5.19576.01418-10.84273a3.45284,3.45284,0,0,0-3.45558-3.46441l-13.147-.017-.01418,10.25535a1.30347,1.30347,0,0,1-1.30521,1.30227l-7.418-.00848a1.30308,1.30308,0,0,1-1.30227-1.30521l.01418-10.25535Zm14.44486.01989-.01419,10.25691,7.41794.00848.01418-10.254-3.80421-.00847Zm44.37741,1.55868v.00138a1.29146,1.29146,0,0,0-.96974.47613l-9.977,12.14933c-.02267.02837-.03746.05692-.057.08512a1.88774,1.88774,0,0,1,1.99363,1.63757c.02266-.02544.05078-.04585.0731-.07319l9.977-12.14932a1.303,1.303,0,0,0-.8834-2.12114.9683.9683,0,0,0-.15675-.00571Zm211.99365,1.3931-2.6792,4.2011,6.25339,3.9902,2.67919-4.19972Zm-240.12012,6.83938a2.59016,2.59016,0,0,0-1.74181,4.55128q13.90493,11.9776,27.80856,23.95746a2.59,2.59,0,0,0,3.95067-.70624,10.69607,10.69607,0,0,1-10.80761-12.03358q-8.78811-7.5707-17.57665-15.14071a2.57981,2.57981,0,0,0-1.63333-.62839Zm178.09719,3.32514a1.99937,1.99937,0,0,1,2.01128,2.00089l.00571,1.32424a2.00187,2.00187,0,0,1-2.00245,2.01266l-12,.03236a2.003,2.003,0,0,1-2.01422-2.00246l-.00147-1.32424a2.0027,2.0027,0,0,1,2.001-2.01266Zm-196.65379.031,12.00148.017a2.00145,2.00145,0,0,1,2.00393,2.00972l-.00147,1.32562a2.00257,2.00257,0,0,1-2.00981,2.004l-12.00148-.017a2.00147,2.00147,0,0,1-2.0054-2.00834l.00286-1.32562a2.00227,2.00227,0,0,1,2.00981-2.00384Zm35.84328,2.22651a.82653.82653,0,0,0-.71783.30035l-.75.91264a.828.828,0,0,0,1.28021,1.05037l.75-.91265a.82842.82842,0,0,0-.56246-1.35071Zm-129.77491.5244a3.451,3.451,0,0,0-2.98975,1.894l-5.94732,11.72163,9.145,4.64055a1.3047,1.3047,0,0,1,.57276,1.75349l-3.3574,6.61533a1.30449,1.30449,0,0,1-1.7534.57267l-9.145-4.64211-5.94871,11.72163a3.45287,3.45287,0,0,0,1.52053,4.65094l16.12646,8.184c.20493-.25433.4109-.5071.61817-.75433,3.44443-4.10924,7.312-7.3887,12.03808-7.475a12.20957,12.20957,0,0,1,7.6201,2.80956,6.85527,6.85527,0,0,1,2.29692,3.24607l2.01413-3.96823-4.44436-2.25592a1.303,1.303,0,0,1-.57276-1.75193l3.35741-6.61515a1.30409,1.30409,0,0,1,1.12354-.71333,1.28283,1.28283,0,0,1,.62986.14066l4.44288,2.25436,5.94871-11.72025a3.45238,3.45238,0,0,0-1.51905-4.65094L84.32144,232.78868A3.4544,3.4544,0,0,0,82.66034,232.41376ZM73.133,247.19253l-3.3574,6.61516,9.145,4.64055,3.3574-6.61515Zm14.49754,2.80662a2.00417,2.00417,0,0,1,.96239.21834l1.18211.59915a2.00257,2.00257,0,0,1,.88038,2.69831L85.22526,264.217a2.003,2.003,0,0,1-2.69822.88184l-1.18212-.59914a2.00258,2.00258,0,0,1-.88037-2.69831l5.43018-10.70207a2.00483,2.00483,0,0,1,1.73584-1.1ZM371.01338,252.195l-7.41941.0199.01133,4.98191,3.62843-.00848,3.78959-.00847Zm-192.16255.02838-.00848,4.98347,7.41794.00847.00847-4.98346Zm-54.63276,6.93315a8.43065,8.43065,0,0,0-8.14744,8.15912v16.07084a8.14965,8.14965,0,0,0,8.14744,8.16656H553.97535a8.14834,8.14834,0,0,0,8.146-8.16656V267.31568a8.42921,8.42921,0,0,0-8.146-8.15912H124.21807Zm-19.24363,4.19522-3.35741,6.61533,4.44436,2.25436,1.67728-3.30767,1.67874-3.30766Zm36.44969,1.21144a10.79221,10.79221,0,1,1-10.793,10.79151A10.79184,10.79184,0,0,1,141.42413,264.56322Zm35.63229,0a10.79221,10.79221,0,1,1-10.79151,10.79151A10.79226,10.79226,0,0,1,177.05642,264.56322Zm35.99416,0a10.79221,10.79221,0,1,1-10.793,10.79151A10.79178,10.79178,0,0,1,213.05058,264.56322Zm35.63229,0a10.79221,10.79221,0,1,1-10.79152,10.79151A10.79225,10.79225,0,0,1,248.68287,264.56322Zm35.99415,0a10.79221,10.79221,0,1,1-10.793,10.79151A10.79177,10.79177,0,0,1,284.677,264.56322Zm35.63229,0a10.79221,10.79221,0,1,1-10.793,10.79151A10.79226,10.79226,0,0,1,320.30931,264.56322Zm35.99268,0a10.79221,10.79221,0,1,1-10.79151,10.79151A10.79226,10.79226,0,0,1,356.302,264.56322Zm35.63377,0a10.79221,10.79221,0,1,1-10.793,10.79151A10.79128,10.79128,0,0,1,391.93576,264.56322Zm35.99268,0a10.79221,10.79221,0,1,1-10.79152,10.79151A10.79231,10.79231,0,0,1,427.92844,264.56322Zm35.63229,0a10.79221,10.79221,0,1,1-10.79152,10.79151A10.79225,10.79225,0,0,1,463.56073,264.56322Zm35.99415,0a10.79221,10.79221,0,1,1-10.793,10.79151A10.79105,10.79105,0,0,1,499.55488,264.56322Zm35.63229,0a10.79221,10.79221,0,1,1-10.7929,10.79151A10.79218,10.79218,0,0,1,535.18717,264.56322ZM93.57348,273.14276c-11.72907.21454-20.14252,25.71095-30.09527,31.95118A19.22522,19.22522,0,0,1,45.651,310.94317c-5.70381,12.154-6.88661,37.77618-6.69578,58.71231H80.4982c-.64621-17.90165-2.17054-38.85942-2.38473-50.039,15.01061-6.98557,29.76577-38.05058,21.92577-44.042a10.28053,10.28053,0,0,0-6.46584-2.4317Zm-44.247,1.4341A17.43747,17.43747,0,1,0,66.764,292.01433,17.43743,17.43743,0,0,0,49.32644,274.57686Zm53.37011,14.90923a56.48977,56.48977,0,0,1-3.39261,8.54736c-4.50085,9.21571-11.50442,18.47243-19.3022,22.63772.0955,3.93241.33945,9.01986.63573,14.63085a10.24645,10.24645,0,0,0,6.18747-2.45212c9.11554-7.82884,17.37163-17.29628,22.59671-29.43609A10.2478,10.2478,0,0,0,102.69655,289.48609Zm453.892,11.57665c-4.63779,4.37654-8.20549,9.419-11.77735,14.45956a33.13165,33.13165,0,0,1,1.2393,3.36182c5.81047-3.42445,11.67924-6.793,16.81064-10.88373-1.08566-2.88759-3.83449-6.0283-6.27242-6.93748Zm-316.39447,2.67045A10.78522,10.78522,0,0,0,229.385,314.54236v94.30369a10.785,10.785,0,0,0,10.80908,10.809h68.48435a10.78517,10.78517,0,0,0,10.80908-10.809V314.54236a10.78522,10.78522,0,0,0-10.80908-10.80917Zm296.65282,6.16705c-4.86427-.10069-14.9767,6.10269-21.35007,12.01316a6.67285,6.67285,0,0,0-9.70309,7.20271l.84958,4.16892a6.64771,6.64771,0,0,0,4.82083,5.11081l6.87156,8.88283a3.18584,3.18584,0,1,0,5.03918-3.89937l-5.32171-6.87744c.11679-.12526.23167-.25277.33842-.38668,8.72331,3.14088,21.49323,4.92585,25.13671,2.25142,5.5705-4.08917.94638-26.77792-5.78036-28.36082a4.33844,4.33844,0,0,0-.90088-.10536Zm30.10842,3.54487c-7.232,1.7149-13.66215,4.93087-20.22505,7.89995.12266.50675.23979,1.01506.34429,1.52787.05156.25312.09637.5078.14378.76178,7.30564-.08876,14.66458.017,21.70015-1.04448.50365-3.04365-.30623-7.13852-1.96283-9.14495ZM485.992,314.81035a1.45651,1.45651,0,1,1,0,.00018ZM249.1077,317.79863h13.81838a11.71113,11.71113,0,0,1,5.52249,22.02993l5.32326,10.58926h-7.75928l-4.50146-9.20222H256.245v9.20222h-7.10893Zm7.1367,7.13523v9.20361h6.65331a4.60191,4.60191,0,1,0,0-9.20378ZM547.615,326.23025c.135,1.12476.21765,2.236.24464,3.31943a137.65065,137.65065,0,0,0,17.14456,8.73335c1.95781-2.38412,3.30541-6.33453,2.87409-8.90031-6.72225-2.01162-13.495-2.50661-20.26311-3.1523Zm-331.46191,2.63966-13.14553.03512.02924,10.25535a1.305,1.305,0,0,1-1.3008,1.30815l-7.418.0199A1.30112,1.30112,0,0,1,193.01,339.1891l-.02838-10.2569-13.14406.03512a3.45164,3.45164,0,0,0-3.4497,3.46874l.08789,33.77041a3.45313,3.45313,0,0,0,3.46874,3.45126l13.14258-.03512-.01133-4.98191a1.3055,1.3055,0,0,1,1.3008-1.30815l7.418-.0199a1.30176,1.30176,0,0,1,1.30807,1.30072l.01418,4.98191,13.14406-.03374a3.45312,3.45312,0,0,0,3.45118-3.46874l-.08928-33.77041a3.45318,3.45318,0,0,0-3.46873-3.45127Zm134.28363,0-13.14553.03512.02924,10.25535a1.305,1.305,0,0,1-1.3008,1.30815l-7.41793.0199a1.30106,1.30106,0,0,1-1.30806-1.29933l-.02924-10.2569-5.91359.01695v40.68869l6.02051-.017-.01133-4.98347a1.30422,1.30422,0,0,1,1.30079-1.30659l7.418-.0199a1.30308,1.30308,0,0,1,1.30807,1.30227l.01133,4.98191L350.5423,369.56a3.45307,3.45307,0,0,0,3.45118-3.46874l-.08928-33.77041a3.45186,3.45186,0,0,0-3.46873-3.44971Zm69.47607,0-13.14406.03512.02552,10.25535a1.3013,1.3013,0,0,1-1.29933,1.30815l-7.4194.0199a1.3,1.3,0,0,1-1.30669-1.29933l-.02551-10.2569-13.14259.03512a3.45175,3.45175,0,0,0-3.44971,3.46874l.08789,33.77041a3.45313,3.45313,0,0,0,3.46874,3.45126l13.14259-.03512-.01134-4.98191a1.30525,1.30525,0,0,1,1.29933-1.30815l7.41941-.0199a1.30131,1.30131,0,0,1,1.30806,1.30072l.01133,4.98191,13.14553-.03374a3.45181,3.45181,0,0,0,3.44971-3.46874l-.08789-33.77041a3.4544,3.4544,0,0,0-3.47021-3.45127Zm-218.209.03962-7.41793.0199.02924,10.25534,7.418-.01989Zm134.28372,0-7.41793.0199.02924,10.25534,7.418-.01989Zm69.47754,0-7.41794.0199.02552,10.25534,7.418-.01989Zm-122.00975,8.5401v2.51959a16.31028,16.31028,0,1,1-16.31106,16.311h7.1367c0,5.06859,3.05809,10.22179,9.17436,10.22179,5.63487,0,9.17428-5.1532,9.17428-10.22179,0-5.06841-3.42618-10.05171-9.17428-10.05171v2.51959l-6.03227-5.77587Zm-79.42379,4.60249a1.99942,1.99942,0,0,1,2.01128,2.0009l.0057,1.32424a2.0027,2.0027,0,0,1-2.001,2.01266l-12.00148.03235a2.00181,2.00181,0,0,1-2.01266-2.00245l-.00571-1.32424a2.0026,2.0026,0,0,1,2.001-2.01266Zm134.28372,0a1.99941,1.99941,0,0,1,2.01127,2.0009l.00571,1.32424a2.004,2.004,0,0,1-2.00245,2.01266l-12,.03235a2.00186,2.00186,0,0,1-2.01266-2.00245l-.00571-1.32424a2.00384,2.00384,0,0,1,2.00245-2.01266Zm69.47606,0a2.00049,2.00049,0,0,1,2.01266,2.0009l.00571,1.32424a2.00186,2.00186,0,0,1-2.00245,2.01266l-12.00148.03235a2.00194,2.00194,0,0,1-2.01275-2.00245l-.00571-1.32424a2.0005,2.0005,0,0,1,2.001-2.01266Zm106.41357,2.93119c-6.38712,3.057-14.15247,9.2735-21.56106,4.5909a18.76941,18.76941,0,0,1-12.02484.30173c-15.62982,15.35266-23.03486,48.33344-23.0244,65.93267a5.69716,5.69716,0,0,0,5.70995,5.70995H499.6708a5.69716,5.69716,0,0,0,5.70995-5.70995c.26557-15.64487-4.36158-31.95031-7.125-45.23581,14.878-3.036,30.17356-13.16681,26.77732-22.42093a4.95038,4.95038,0,0,1-1.08687,1.16887,5.079,5.079,0,0,1-7.08246-.90243Zm-174.3281,3.87013c.68184-.03565.94171.55952.09809.99465-4.47394,2.082-6.96645,4.71789-10.74168,9.91122l-1.01516,1.185-.28858-1.53515a12.906,12.906,0,0,0-3.48777-6.51411.749.749,0,0,1,.95659-1.15279,8.93381,8.93381,0,0,1,3.23586,4.89991c3.52125-4.09713,6.34387-5.62085,10.71245-7.65375a1.52,1.52,0,0,1,.53028-.13461Zm69.47753,0c.68185-.03565.94188.55952.0981.99465-4.47394,2.082-6.96784,4.71789-10.74316,9.91122l-1.01368,1.185-.29-1.53515a12.906,12.906,0,0,0-3.48777-6.51411.74944.74944,0,0,1,.958-1.15279,8.932,8.932,0,0,1,3.23439,4.89991c3.52125-4.09713,6.34387-5.62085,10.71245-7.65375a1.52531,1.52531,0,0,1,.53176-.13461ZM201.79919,364.6151l-7.418.01989.01133,4.98191,3.58743-.00848,3.832-.00847Zm134.28372,0-7.4194.01989.01133,4.98191,7.418-.01989Zm69.47606,0-7.41793.01989.01133,4.98191,3.586-.00848,3.83206-.00847ZM37.19771,371.57316a10.32172,10.32172,0,0,0-9.98882,10.07818v16.07084a10.10669,10.10669,0,0,0,10.062,10.08683H227.52164V396.34517a8.84741,8.84741,0,0,1,0-13.32287V371.573H37.19753Zm284.15478,0v36.23723H456.15326c.28651-3.06163.72761-6.33452,1.32571-9.73544a8.87125,8.87125,0,1,1,3.40282-14.62341c.7059-2.4265,1.47987-4.85232,2.335-7.24959.5558-1.55833,1.14906-3.10178,1.768-4.629H321.354Zm-64.72408,4.60993h3.40576a8.093,8.093,0,0,1,1.91309.19326,4.2459,4.2459,0,0,1,1.39154.59032,3.3506,3.3506,0,0,1,1.10452,1.19673,3.71113,3.71113,0,0,1,.397,1.812,4.03948,4.03948,0,0,1-.29594,1.55123,3.66425,3.66425,0,0,1-.81,1.23047,4.218,4.218,0,0,1-1.53367.97856,6.64659,6.64659,0,0,1-2.23386.31938h-1.66992v4.68018h-1.66845Zm1.66845,1.43255v5.01565h1.40919a6.26034,6.26034,0,0,0,1.64354-.17717,2.32054,2.32054,0,0,0,1.5835-1.43254,2.82775,2.82775,0,0,0,.16981-1.00348,2.61513,2.61513,0,0,0-.22846-1.12943,1.89406,1.89406,0,0,0-.69136-.78375,2.72588,2.72588,0,0,0-.92727-.372,5.98306,5.98306,0,0,0-1.30521-.11713ZM270.4287,379.057a3.79351,3.79351,0,0,1,2.93266,1.11334,4.4646,4.4646,0,0,1,1.037,3.16112v.85988h-6.93748a4.045,4.045,0,0,0,.26082,1.51767,2.81489,2.81489,0,0,0,1.755,1.65954,4.18584,4.18584,0,0,0,1.33151.20208,5.26743,5.26743,0,0,0,1.93065-.37786,4.80926,4.80926,0,0,0,1.39016-.76022h.085v1.72857a13.10432,13.10432,0,0,1-1.63619.56541,6.63613,6.63613,0,0,1-1.7534.227,5.05857,5.05857,0,0,1-3.65775-1.26421,4.78886,4.78886,0,0,1-1.31542-3.60784,5.18576,5.18576,0,0,1,1.25685-3.66649,4.32669,4.32669,0,0,1,3.32081-1.358Zm10.28468,0a3.79319,3.79319,0,0,1,2.93257,1.11334,4.46463,4.46463,0,0,1,1.03712,3.16112v.85988H277.7456a4.04517,4.04517,0,0,0,.26081,1.51767,2.81451,2.81451,0,0,0,1.75488,1.65954,4.18613,4.18613,0,0,0,1.3315.20208,5.26744,5.26744,0,0,0,1.93066-.37786,4.81052,4.81052,0,0,0,1.39016-.76022h.085v1.72857a13.10418,13.10418,0,0,1-1.63618.56541,6.63569,6.63569,0,0,1-1.7534.227,5.05861,5.05861,0,0,1-3.65776-1.26421,4.78855,4.78855,0,0,1-1.31542-3.60784,5.18465,5.18465,0,0,1,1.25539-3.66649,4.32976,4.32976,0,0,1,3.32228-1.358Zm6.37207.26073h1.585v1.39155a7.67953,7.67953,0,0,1,1.6611-1.07078,3.61862,3.61862,0,0,1,1.47511-.32077,4.95,4.95,0,0,1,.59914.02544c.12362.01141.30788.0365.5552.07629v1.626h-.08331a5.1922,5.1922,0,0,0-.69144-.11713,6.21035,6.21035,0,0,0-.78367-.04256,3.22707,3.22707,0,0,0-1.41654.32959,6.36786,6.36786,0,0,0-1.31542.83358v6.68557h-1.585Zm-16.7417,1.05036a2.762,2.762,0,0,0-2.03169.75,2.92312,2.92312,0,0,0-.851,1.86335h5.395a2.79009,2.79009,0,0,0-.6328-1.93066,2.40472,2.40472,0,0,0-1.87944-.68253Zm10.28468,0a2.762,2.762,0,0,0-2.03169.75,2.92308,2.92308,0,0,0-.85106,1.86335h5.395a2.79013,2.79013,0,0,0-.63279-1.93066,2.40473,2.40473,0,0,0-1.87944-.68253Zm-226.14551.45711a8.87107,8.87107,0,1,1-8.87107,8.87107A8.84163,8.84163,0,0,1,54.48292,380.82521Zm35.63376,0a8.87107,8.87107,0,1,1-8.87254,8.87107A8.84092,8.84092,0,0,1,90.11668,380.82521Zm35.99268,0a8.87107,8.87107,0,1,1-8.87107,8.87107A8.84168,8.84168,0,0,1,126.10936,380.82521Zm35.6323,0a8.87107,8.87107,0,1,1-8.87107,8.87107A8.84213,8.84213,0,0,1,161.74166,380.82521Zm35.99415,0a8.87107,8.87107,0,1,1-8.87254,8.87107A8.84218,8.84218,0,0,1,197.73581,380.82521Zm149.56639,0a8.87107,8.87107,0,1,1-8.87107,8.87107A8.84168,8.84168,0,0,1,347.3022,380.82521Zm35.63229,0a8.87107,8.87107,0,1,1-8.87107,8.87107A8.84293,8.84293,0,0,1,382.93449,380.82521Zm35.99415,0a8.87107,8.87107,0,1,1-8.87254,8.87107A8.84168,8.84168,0,0,1,418.92864,380.82521ZM276.86816,397.68256h1.78714v1.64362h-1.78714Zm-31.88967.08512h3.51562a9.91,9.91,0,0,1,1.89553.15225,3.92744,3.92744,0,0,1,1.36672.52146,3.11653,3.11653,0,0,1,1.062,1.08687,3.18786,3.18786,0,0,1,.38677,1.65383,3.71,3.71,0,0,1-.68262,2.27633,4.16014,4.16014,0,0,1-1.87944,1.37407l4.72118,5.48728h-2.16647l-4.19825-4.99073H246.647v4.99073h-1.66845Zm1.66845,1.4341v4.73727h1.68748a6.23693,6.23693,0,0,0,1.38134-.1346,2.23309,2.23309,0,0,0,1.00339-.523,2.182,2.182,0,0,0,.55666-.81,3.184,3.184,0,0,0,.18452-1.17181,2.21584,2.21584,0,0,0-.19334-.95209,1.62763,1.62763,0,0,0-.62406-.70745,2.26031,2.26031,0,0,0-.85987-.33686,5.94445,5.94445,0,0,0-1.17191-.10121Zm13.71535,1.44138a3.79694,3.79694,0,0,1,2.934,1.11178,4.46463,4.46463,0,0,1,1.03712,3.16112v.85987H257.396a4.04357,4.04357,0,0,0,.26081,1.5175,2.81519,2.81519,0,0,0,1.75341,1.66127,4.19538,4.19538,0,0,0,1.333.20208,5.25871,5.25871,0,0,0,1.92919-.37942,4.81924,4.81924,0,0,0,1.39154-.75883h.085v1.72857a13.09719,13.09719,0,0,1-1.63627.56541,6.63615,6.63615,0,0,1-1.75341.227A5.06379,5.06379,0,0,1,257.1,409.2753a4.78844,4.78844,0,0,1-1.31395-3.60785,5.1883,5.1883,0,0,1,1.25538-3.66787A4.32541,4.32541,0,0,1,260.36229,400.64316Zm25.25687,0a3.79725,3.79725,0,0,1,2.93413,1.11178,4.46463,4.46463,0,0,1,1.03713,3.16112v.85987h-6.93895a4.04437,4.04437,0,0,0,.2622,1.5175,2.81758,2.81758,0,0,0,1.75193,1.66127,4.19509,4.19509,0,0,0,1.333.20208,5.26579,5.26579,0,0,0,1.93065-.37942,4.80716,4.80716,0,0,0,1.39007-.75883h.085v1.72857a13.07632,13.07632,0,0,1-1.6348.56541,6.64719,6.64719,0,0,1-1.75487.227,5.0601,5.0601,0,0,1-3.65776-1.2642,4.78919,4.78919,0,0,1-1.31541-3.60785,5.1883,5.1883,0,0,1,1.25538-3.66787A4.3286,4.3286,0,0,1,285.61916,400.64316Zm-19.92773.26073h1.71975l2.91648,7.49406,2.8901-7.49406h1.6611l-3.81,9.41606h-1.59224Zm11.27786,0h1.585V410.32h-1.585Zm14.18845,0h1.65236l1.72849,7.292,2.35107-7.292h1.3066l2.41111,7.292,1.63627-7.292h1.59224L301.38229,410.32H299.916l-2.41847-7.25824L295.0937,410.32h-1.45755Zm-30.87893,1.04448a2.76369,2.76369,0,0,0-2.03169.75139,2.91958,2.91958,0,0,0-.85106,1.8618h5.395a2.78874,2.78874,0,0,0-.63279-1.93066A2.40462,2.40462,0,0,0,260.27881,401.94837Zm25.25687,0a2.76736,2.76736,0,0,0-2.03316.75139,2.91916,2.91916,0,0,0-.851,1.8618h5.395a2.78866,2.78866,0,0,0-.63133-1.93066A2.40459,2.40459,0,0,0,285.53568,401.94837Z"/>
  </g>
  <rect class="a94a3c56-f9a9-4944-9302-f829a61ba1d7" x="0.5" y="0.5" width="595.27557" height="432"/>
</svg>
