<?xml version="1.0" standalone="no"?><!DOCTYPE svg PUBLIC "-//W3C//DTD SVG 1.1//EN" "http://www.w3.org/Graphics/SVG/1.1/DTD/svg11.dtd"><svg xmlns:xlink="http://www.w3.org/1999/xlink" version="1.1" style="font-family:open sans;font-size:12px;" xmlns="http://www.w3.org/2000/svg" width="1040" height="410"><desc>Created with Highcharts 4.1.5</desc><defs><clipPath id="highcharts-63"><rect x="0" y="0" width="809" height="196"></rect></clipPath></defs><rect x="0" y="0" width="1040" height="410" strokeWidth="0" fill="#FFFFFF" class=" highcharts-background"></rect><g class="highcharts-grid" ></g><g class="highcharts-grid" ></g><g class="highcharts-grid" ><path fill="none" d="M 104 332.5 L 913 332.5" stroke="#D8D8D8" stroke-width="1"  opacity="1"></path><path fill="none" d="M 104 267.5 L 913 267.5" stroke="#D8D8D8" stroke-width="1"  opacity="1"></path><path fill="none" d="M 104 201.5 L 913 201.5" stroke="#D8D8D8" stroke-width="1"  opacity="1"></path><path fill="none" d="M 104 136.5 L 913 136.5" stroke="#D8D8D8" stroke-width="1"  opacity="1"></path></g><g class="highcharts-grid" ><path fill="none" d="M 104 332.5 L 913 332.5" stroke="#D8D8D8" stroke-width="1"  opacity="1"></path><path fill="none" d="M 104 267.5 L 913 267.5" stroke="#D8D8D8" stroke-width="1"  opacity="1"></path><path fill="none" d="M 104 201.5 L 913 201.5" stroke="#D8D8D8" stroke-width="1"  opacity="1"></path><path fill="none" d="M 104 135.5 L 913 135.5" stroke="#D8D8D8" stroke-width="1"  opacity="1"></path></g><g class="highcharts-axis" ><path fill="none" d="M 177.5 332 L 177.5 342" stroke="#C0D0E0" stroke-width="1" opacity="1"></path><path fill="none" d="M 250.5 332 L 250.5 342" stroke="#C0D0E0" stroke-width="1" opacity="1"></path><path fill="none" d="M 324.5 332 L 324.5 342" stroke="#C0D0E0" stroke-width="1" opacity="1"></path><path fill="none" d="M 397.5 332 L 397.5 342" stroke="#C0D0E0" stroke-width="1" opacity="1"></path><path fill="none" d="M 471.5 332 L 471.5 342" stroke="#C0D0E0" stroke-width="1" opacity="1"></path><path fill="none" d="M 544.5 332 L 544.5 342" stroke="#C0D0E0" stroke-width="1" opacity="1"></path><path fill="none" d="M 618.5 332 L 618.5 342" stroke="#C0D0E0" stroke-width="1" opacity="1"></path><path fill="none" d="M 691.5 332 L 691.5 342" stroke="#C0D0E0" stroke-width="1" opacity="1"></path><path fill="none" d="M 765.5 332 L 765.5 342" stroke="#C0D0E0" stroke-width="1" opacity="1"></path><path fill="none" d="M 838.5 332 L 838.5 342" stroke="#C0D0E0" stroke-width="1" opacity="1"></path><path fill="none" d="M 913.5 332 L 913.5 342" stroke="#C0D0E0" stroke-width="1" opacity="1"></path><path fill="none" d="M 103.5 332 L 103.5 342" stroke="#C0D0E0" stroke-width="1" opacity="1"></path><path fill="none" d="M 104 332.5 L 913 332.5" stroke="#C0D0E0" stroke-width="1"  visibility="visible"></path></g><g class="highcharts-axis" ><path fill="none" d="M 177.5 136 L 177.5 126" stroke="#C0D0E0" stroke-width="1" opacity="1"></path><path fill="none" d="M 250.5 136 L 250.5 126" stroke="#C0D0E0" stroke-width="1" opacity="1"></path><path fill="none" d="M 324.5 136 L 324.5 126" stroke="#C0D0E0" stroke-width="1" opacity="1"></path><path fill="none" d="M 397.5 136 L 397.5 126" stroke="#C0D0E0" stroke-width="1" opacity="1"></path><path fill="none" d="M 471.5 136 L 471.5 126" stroke="#C0D0E0" stroke-width="1" opacity="1"></path><path fill="none" d="M 544.5 136 L 544.5 126" stroke="#C0D0E0" stroke-width="1" opacity="1"></path><path fill="none" d="M 618.5 136 L 618.5 126" stroke="#C0D0E0" stroke-width="1" opacity="1"></path><path fill="none" d="M 691.5 136 L 691.5 126" stroke="#C0D0E0" stroke-width="1" opacity="1"></path><path fill="none" d="M 765.5 136 L 765.5 126" stroke="#C0D0E0" stroke-width="1" opacity="1"></path><path fill="none" d="M 838.5 136 L 838.5 126" stroke="#C0D0E0" stroke-width="1" opacity="1"></path><path fill="none" d="M 913.5 136 L 913.5 126" stroke="#C0D0E0" stroke-width="1" opacity="1"></path><path fill="none" d="M 103.5 136 L 103.5 126" stroke="#C0D0E0" stroke-width="1" opacity="1"></path><path fill="none" d="M 104 135.5 L 913 135.5" stroke="#C0D0E0" stroke-width="1"  visibility="visible"></path></g><g class="highcharts-axis" ><text x="1013.25"  text-anchor="middle" transform="translate(0,0) rotate(90 1013.25 234)" class=" highcharts-yaxis-title" style="color:#000000;fill:#000000;" visibility="visible" y="234"><tspan>Hanging suicides</tspan></text></g><g class="highcharts-axis" ><text x="26.015625"  text-anchor="middle" transform="translate(0,0) rotate(270 26.015625 234)" class=" highcharts-yaxis-title" style="color:#ba0f27;fill:#ba0f27;" visibility="visible" y="234"><tspan>US spending on science</tspan></text></g><g class="highcharts-series-group" ><g class="highcharts-series" visibility="visible"  transform="translate(104,136) scale(1 1)" clip-path="url(#highcharts-63)"><path fill="none" d="M 36.77272727272727 149.38466666666667 C 36.77272727272727 149.38466666666667 80.9 145.89586666666665 110.31818181818181 140.85866666666666 C 139.73636363636365 135.82146666666665 154.44545454545454 129.25546666666668 183.86363636363637 124.19866666666667 C 213.2818181818182 119.14186666666667 227.9909090909091 118.42973333333333 257.4090909090909 115.57466666666667 C 286.8272727272727 112.7196 301.5363636363636 115.57466666666667 330.95454545454544 109.92333333333335 C 360.3727272727273 104.27200000000002 375.0818181818182 87.02400000000002 404.5 87.02400000000002 C 433.9181818181818 87.02400000000002 448.6272727272727 89.89866666666667 478.0454545454545 89.89866666666667 C 507.4636363636364 89.89866666666667 522.1727272727273 87.9256 551.5909090909091 81.96066666666668 C 581.009090909091 75.99573333333335 595.7181818181818 67.17573333333334 625.1363636363636 60.07400000000001 C 654.5545454545454 52.97226666666668 669.2636363636364 51.93346666666668 698.6818181818181 46.45200000000003 C 728.1 40.97053333333335 772.2272727272727 32.666666666666686 772.2272727272727 32.666666666666686" stroke="#000000" stroke-width="2"  stroke-linejoin="round" stroke-linecap="round"></path></g><g class="highcharts-markers" visibility="visible"  transform="translate(104,136) scale(1 1)" clip-path="none"><path fill="#000000" d="M 772 28.666666666666686 C 777.328 28.666666666666686 777.328 36.666666666666686 772 36.666666666666686 C 766.672 36.666666666666686 766.672 28.666666666666686 772 28.666666666666686 Z"></path><path fill="#000000" d="M 698 42.45200000000003 C 703.328 42.45200000000003 703.328 50.45200000000003 698 50.45200000000003 C 692.672 50.45200000000003 692.672 42.45200000000003 698 42.45200000000003 Z"></path><path fill="#000000" d="M 625 56.07400000000001 C 630.328 56.07400000000001 630.328 64.07400000000001 625 64.07400000000001 C 619.672 64.07400000000001 619.672 56.07400000000001 625 56.07400000000001 Z"></path><path fill="#000000" d="M 551 77.96066666666668 C 556.328 77.96066666666668 556.328 85.96066666666668 551 85.96066666666668 C 545.672 85.96066666666668 545.672 77.96066666666668 551 77.96066666666668 Z"></path><path fill="#000000" d="M 478 85.89866666666667 C 483.328 85.89866666666667 483.328 93.89866666666667 478 93.89866666666667 C 472.672 93.89866666666667 472.672 85.89866666666667 478 85.89866666666667 Z"></path><path fill="#000000" d="M 404 83.02400000000002 C 409.328 83.02400000000002 409.328 91.02400000000002 404 91.02400000000002 C 398.672 91.02400000000002 398.672 83.02400000000002 404 83.02400000000002 Z"></path><path fill="#000000" d="M 330 105.92333333333335 C 335.328 105.92333333333335 335.328 113.92333333333335 330 113.92333333333335 C 324.672 113.92333333333335 324.672 105.92333333333335 330 105.92333333333335 Z"></path><path fill="#000000" d="M 257 111.57466666666667 C 262.328 111.57466666666667 262.328 119.57466666666667 257 119.57466666666667 C 251.672 119.57466666666667 251.672 111.57466666666667 257 111.57466666666667 Z"></path><path fill="#000000" d="M 183 120.19866666666667 C 188.328 120.19866666666667 188.328 128.19866666666667 183 128.19866666666667 C 177.672 128.19866666666667 177.672 120.19866666666667 183 120.19866666666667 Z"></path><path fill="#000000" d="M 110 136.85866666666666 C 115.328 136.85866666666666 115.328 144.85866666666666 110 144.85866666666666 C 104.672 144.85866666666666 104.672 136.85866666666666 110 136.85866666666666 Z"></path><path fill="#000000" d="M 36 145.38466666666667 C 41.328 145.38466666666667 41.328 153.38466666666667 36 153.38466666666667 C 30.672 153.38466666666667 30.672 145.38466666666667 36 145.38466666666667 Z"></path></g><g class="highcharts-series" visibility="visible"  transform="translate(104,136) scale(1 1)" clip-path="url(#highcharts-63)"><path fill="none" d="M 36.77272727272727 155.76773333333333 C 36.77272727272727 155.76773333333333 80.9 153.41312 110.31818181818181 149.0384 C 139.73636363636365 144.66368 154.44545454545454 139.48666666666668 183.86363636363637 133.89413333333334 C 213.2818181818182 128.3016 227.9909090909091 122.34319999999997 257.4090909090909 121.07573333333332 C 286.8272727272727 119.80826666666667 301.5363636363636 121.07573333333332 330.95454545454544 119.80826666666667 C 360.3727272727273 118.54080000000002 375.0818181818182 98.31621333333334 404.5 91.08773333333333 C 433.9181818181818 83.85925333333333 448.6272727272727 83.66586666666664 478.0454545454545 83.66586666666664 C 507.4636363636364 83.66586666666664 522.1727272727273 83.83573333333334 551.5909090909091 83.83573333333334 C 581.009090909091 83.83573333333334 595.7181818181818 69.3108266666667 625.1363636363636 58.47333333333336 C 654.5545454545454 47.635840000000016 669.2636363636364 39.902986666666635 698.6818181818181 29.648266666666643 C 728.1 19.393546666666616 772.2272727272727 7.199733333333313 772.2272727272727 7.199733333333313" stroke="#ba0f27" stroke-width="2"  stroke-linejoin="round" stroke-linecap="round"></path></g><g class="highcharts-markers" visibility="visible"  transform="translate(104,136) scale(1 1)" clip-path="none"><path fill="#ba0f27" d="M 772 3.199733333333313 L 776 7.199733333333313 772 11.199733333333313 768 7.199733333333313 Z"></path><path fill="#ba0f27" d="M 698 25.648266666666643 L 702 29.648266666666643 698 33.64826666666664 694 29.648266666666643 Z"></path><path fill="#ba0f27" d="M 625 54.47333333333336 L 629 58.47333333333336 625 62.47333333333336 621 58.47333333333336 Z"></path><path fill="#ba0f27" d="M 551 79.83573333333334 L 555 83.83573333333334 551 87.83573333333334 547 83.83573333333334 Z"></path><path fill="#ba0f27" d="M 478 79.66586666666664 L 482 83.66586666666664 478 87.66586666666664 474 83.66586666666664 Z"></path><path fill="#ba0f27" d="M 404 87.08773333333333 L 408 91.08773333333333 404 95.08773333333333 400 91.08773333333333 Z"></path><path fill="#ba0f27" d="M 330 115.80826666666667 L 334 119.80826666666667 330 123.80826666666667 326 119.80826666666667 Z"></path><path fill="#ba0f27" d="M 257 117.07573333333332 L 261 121.07573333333332 257 125.07573333333332 253 121.07573333333332 Z"></path><path fill="#ba0f27" d="M 183 129.89413333333334 L 187 133.89413333333334 183 137.89413333333334 179 133.89413333333334 Z"></path><path fill="#ba0f27" d="M 110 145.0384 L 114 149.0384 110 153.0384 106 149.0384 Z"></path><path fill="#ba0f27" d="M 36 151.76773333333333 L 40 155.76773333333333 36 159.76773333333333 32 155.76773333333333 Z"></path></g></g><text x="520" text-anchor="middle" class="highcharts-title"  style="color:#777;font-size:18px;fill:#777;width:976px;" y="24"><tspan style="fill:#ba0f27;font-size:24px;font-weight:bold;font-family: 'lora'">US spending on science, space, and technology</tspan><tspan style="font-family: 'lora'" x="520" dy="21"> correlates with </tspan><tspan style="fill:#000000;font-size:24px;font-weight:bold;font-family: 'lora'" x="520" dy="29">Suicides by hanging, strangulation and suffocation</tspan></text><g class="highcharts-legend"  transform="translate(365,367)"><g ><g><g class="highcharts-legend-item"  transform="translate(8,3)"><path fill="none" d="M 0 11 L 16 11" stroke="#000000" stroke-width="2"></path><path fill="#000000" d="M 8 7 C 13.328 7 13.328 15 8 15 C 2.6719999999999997 15 2.6719999999999997 7 8 7 Z"></path><text x="21" style="color:#333333;font-size:12px;font-weight:bold;cursor:pointer;fill:#333333;" text-anchor="start"  y="15"><tspan>Hanging suicides</tspan></text></g><g class="highcharts-legend-item"  transform="translate(146.328125,3)"><path fill="none" d="M 0 11 L 16 11" stroke="#ba0f27" stroke-width="2"></path><path fill="#ba0f27" d="M 8 7 L 12 11 8 15 4 11 Z"></path><text x="21" y="15" style="color:#333333;font-size:12px;font-weight:bold;cursor:pointer;fill:#333333;" text-anchor="start" ><tspan>US spending on science</tspan></text></g></g></g></g><g class="highcharts-axis-labels highcharts-xaxis-labels" ><text x="140.77272727272728" style="color:#000000;cursor:default;font-size:11px;fill:#000000;width:74.18181818181819;text-overflow:ellipsis;" text-anchor="middle" transform="translate(0,0)" y="351" opacity="1"><tspan>1999</tspan></text><text x="214.3181818181818" style="color:#000000;cursor:default;font-size:11px;fill:#000000;width:74.18181818181819;text-overflow:ellipsis;" text-anchor="middle" transform="translate(0,0)" y="351" opacity="1"><tspan>2000</tspan></text><text x="287.8636363636364" style="color:#000000;cursor:default;font-size:11px;fill:#000000;width:74.18181818181819;text-overflow:ellipsis;" text-anchor="middle" transform="translate(0,0)" y="351" opacity="1"><tspan>2001</tspan></text><text x="361.40909090909093" style="color:#000000;cursor:default;font-size:11px;fill:#000000;width:74.18181818181819;text-overflow:ellipsis;" text-anchor="middle" transform="translate(0,0)" y="351" opacity="1"><tspan>2002</tspan></text><text x="434.95454545454544" style="color:#000000;cursor:default;font-size:11px;fill:#000000;width:74.18181818181819;text-overflow:ellipsis;" text-anchor="middle" transform="translate(0,0)" y="351" opacity="1"><tspan>2003</tspan></text><text x="508.5" style="color:#000000;cursor:default;font-size:11px;fill:#000000;width:74.18181818181819;text-overflow:ellipsis;" text-anchor="middle" transform="translate(0,0)" y="351" opacity="1"><tspan>2004</tspan></text><text x="582.0454545454546" style="color:#000000;cursor:default;font-size:11px;fill:#000000;width:74.18181818181819;text-overflow:ellipsis;" text-anchor="middle" transform="translate(0,0)" y="351" opacity="1"><tspan>2005</tspan></text><text x="655.5909090909091" style="color:#000000;cursor:default;font-size:11px;fill:#000000;width:74.18181818181819;text-overflow:ellipsis;" text-anchor="middle" transform="translate(0,0)" y="351" opacity="1"><tspan>2006</tspan></text><text x="729.1363636363636" style="color:#000000;cursor:default;font-size:11px;fill:#000000;width:74.18181818181819;text-overflow:ellipsis;" text-anchor="middle" transform="translate(0,0)" y="351" opacity="1"><tspan>2007</tspan></text><text x="802.6818181818182" style="color:#000000;cursor:default;font-size:11px;fill:#000000;width:74.18181818181819;text-overflow:ellipsis;" text-anchor="middle" transform="translate(0,0)" y="351" opacity="1"><tspan>2008</tspan></text><text x="876.2272727272727" style="color:#000000;cursor:default;font-size:11px;fill:#000000;width:74.18181818181819;text-overflow:ellipsis;" text-anchor="middle" transform="translate(0,0)" y="351" opacity="1"><tspan>2009</tspan></text></g><g class="highcharts-axis-labels highcharts-xaxis-labels" ><text x="140.77272727272728" style="color:#ba0f27;cursor:default;font-size:11px;fill:#ba0f27;width:74.18181818181819;text-overflow:ellipsis;" text-anchor="middle" transform="translate(0,0)" y="121" opacity="1"><tspan>1999</tspan></text><text x="214.3181818181818" style="color:#ba0f27;cursor:default;font-size:11px;fill:#ba0f27;width:74.18181818181819;text-overflow:ellipsis;" text-anchor="middle" transform="translate(0,0)" y="121" opacity="1"><tspan>2000</tspan></text><text x="287.8636363636364" style="color:#ba0f27;cursor:default;font-size:11px;fill:#ba0f27;width:74.18181818181819;text-overflow:ellipsis;" text-anchor="middle" transform="translate(0,0)" y="121" opacity="1"><tspan>2001</tspan></text><text x="361.40909090909093" style="color:#ba0f27;cursor:default;font-size:11px;fill:#ba0f27;width:74.18181818181819;text-overflow:ellipsis;" text-anchor="middle" transform="translate(0,0)" y="121" opacity="1"><tspan>2002</tspan></text><text x="434.95454545454544" style="color:#ba0f27;cursor:default;font-size:11px;fill:#ba0f27;width:74.18181818181819;text-overflow:ellipsis;" text-anchor="middle" transform="translate(0,0)" y="121" opacity="1"><tspan>2003</tspan></text><text x="508.5" style="color:#ba0f27;cursor:default;font-size:11px;fill:#ba0f27;width:74.18181818181819;text-overflow:ellipsis;" text-anchor="middle" transform="translate(0,0)" y="121" opacity="1"><tspan>2004</tspan></text><text x="582.0454545454546" style="color:#ba0f27;cursor:default;font-size:11px;fill:#ba0f27;width:74.18181818181819;text-overflow:ellipsis;" text-anchor="middle" transform="translate(0,0)" y="121" opacity="1"><tspan>2005</tspan></text><text x="655.5909090909091" style="color:#ba0f27;cursor:default;font-size:11px;fill:#ba0f27;width:74.18181818181819;text-overflow:ellipsis;" text-anchor="middle" transform="translate(0,0)" y="121" opacity="1"><tspan>2006</tspan></text><text x="729.1363636363636" style="color:#ba0f27;cursor:default;font-size:11px;fill:#ba0f27;width:74.18181818181819;text-overflow:ellipsis;" text-anchor="middle" transform="translate(0,0)" y="121" opacity="1"><tspan>2007</tspan></text><text x="802.6818181818182" style="color:#ba0f27;cursor:default;font-size:11px;fill:#ba0f27;width:74.18181818181819;text-overflow:ellipsis;" text-anchor="middle" transform="translate(0,0)" y="121" opacity="1"><tspan>2008</tspan></text><text x="876.2272727272727" style="color:#ba0f27;cursor:default;font-size:11px;fill:#ba0f27;width:74.18181818181819;text-overflow:ellipsis;" text-anchor="middle" transform="translate(0,0)" y="121" opacity="1"><tspan>2009</tspan></text></g><g class="highcharts-axis-labels highcharts-yaxis-labels" ><text x="928" style="color:#000000;cursor:default;font-size:11px;fill:#000000;width:333px;text-overflow:clip;" text-anchor="start" transform="translate(0,0)" y="270" opacity="1"><tspan>6000 suicides</tspan></text><text x="928" style="color:#000000;cursor:default;font-size:11px;fill:#000000;width:333px;text-overflow:clip;" text-anchor="start" transform="translate(0,0)" y="205" opacity="1"><tspan>8000 suicides</tspan></text><text x="928" style="color:#000000;cursor:default;font-size:11px;fill:#000000;width:333px;text-overflow:clip;" text-anchor="start" transform="translate(0,0)" y="336" opacity="1"><tspan>4000 suicides</tspan></text><text x="928" style="color:#000000;cursor:default;font-size:11px;fill:#000000;width:333px;text-overflow:clip;" text-anchor="start" transform="translate(0,0)" y="140" opacity="1"><tspan>10000 suicides</tspan></text></g><g class="highcharts-axis-labels highcharts-yaxis-labels" ><text x="89" style="color:#ba0f27;cursor:default;font-size:11px;fill:#ba0f27;width:333px;text-overflow:clip;" text-anchor="end" transform="translate(0,0)" y="336" opacity="1"><tspan>$15 billion</tspan></text><text x="89" style="color:#ba0f27;cursor:default;font-size:11px;fill:#ba0f27;width:333px;text-overflow:clip;" text-anchor="end" transform="translate(0,0)" y="270" opacity="1"><tspan>$20 billion</tspan></text><text x="89" style="color:#ba0f27;cursor:default;font-size:11px;fill:#ba0f27;width:333px;text-overflow:clip;" text-anchor="end" transform="translate(0,0)" y="205" opacity="1"><tspan>$25 billion</tspan></text><text x="89" style="color:#ba0f27;cursor:default;font-size:11px;fill:#ba0f27;width:333px;text-overflow:clip;" text-anchor="end" transform="translate(0,0)" y="140" opacity="1"><tspan>$30 billion</tspan></text></g><g class="highcharts-tooltip"  style="cursor:default;padding:0;white-space:nowrap;" transform="translate(0,-9999)"><path fill="none" d="M 3 0 L 13 0 C 16 0 16 0 16 3 L 16 13 C 16 16 16 16 13 16 L 3 16 C 0 16 0 16 0 13 L 0 3 C 0 0 0 0 3 0"  stroke="black" stroke-opacity="0.049999999999999996" stroke-width="5" transform="translate(1, 1)"></path><path fill="none" d="M 3 0 L 13 0 C 16 0 16 0 16 3 L 16 13 C 16 16 16 16 13 16 L 3 16 C 0 16 0 16 0 13 L 0 3 C 0 0 0 0 3 0"  stroke="black" stroke-opacity="0.09999999999999999" stroke-width="3" transform="translate(1, 1)"></path><path fill="none" d="M 3 0 L 13 0 C 16 0 16 0 16 3 L 16 13 C 16 16 16 16 13 16 L 3 16 C 0 16 0 16 0 13 L 0 3 C 0 0 0 0 3 0"  stroke="black" stroke-opacity="0.15" stroke-width="1" transform="translate(1, 1)"></path><path fill="rgb(249, 249, 249)" fill-opacity=" .85" d="M 3 0 L 13 0 C 16 0 16 0 16 3 L 16 13 C 16 16 16 16 13 16 L 3 16 C 0 16 0 16 0 13 L 0 3 C 0 0 0 0 3 0"></path><text x="8"  style="font-size:12px;color:#333333;fill:#333333;" transform="translate(0,20)"></text></g><text x="1030" text-anchor="end"  style="cursor:pointer;color:#909090;font-size:9px;fill:#909090;" y="405">tylervigen.com</text></svg>