<svg height="511pt" viewBox="0 0 511.99996 511" width="511pt" xmlns="http://www.w3.org/2000/svg" xmlns:xlink="http://www.w3.org/1999/xlink"><linearGradient id="a" gradientUnits="userSpaceOnUse" x1="-.000271" x2="511.9998192123" y1="256.4588521091" y2="256.4588521091"><stop offset="0" stop-color="#00f2fe"/><stop offset=".0208" stop-color="#03effe"/><stop offset=".2931" stop-color="#24d2fe"/><stop offset=".5538" stop-color="#3cbdfe"/><stop offset=".7956" stop-color="#4ab0fe"/><stop offset="1" stop-color="#4facfe"/></linearGradient><path d="m176.082031 186.5 68.996094 25.507812c4.464844 1.652344 9.15625 2.476563 13.847656 2.476563 4.691407 0 9.382813-.824219 13.847657-2.476563l68.996093-25.507812c15.640625-5.78125 26.152344-20.890625 26.152344-37.59375v-82.828125c0-16.703125-10.511719-31.8125-26.152344-37.59375l-68.992187-25.507813c-8.933594-3.300781-18.769532-3.300781-27.699219 0l-68.992187 25.507813c-15.644532 5.78125-26.152344 20.890625-26.152344 37.59375v82.828125c0 16.703125 10.507812 31.8125 26.148437 37.59375zm151.816407-37.515625-48.972657 18.117187v-68.101562l48.992188-17.785156zm-68.996094-108.492187 31.65625 11.734374-31.589844 11.464844-31.484375-11.574218zm-68.972656 40.433593 48.996093 18.011719v68.132812l-48.996093-18.164062zm216.988281 25.566407c0-11.046876 8.953125-20 19.996093-20h26c11.046876 0 20 8.953124 20 20v117.992187c0 11.046875-8.953124 20-20 20-11.046874 0-20-8.953125-20-20v-97.992187h-6c-11.042968 0-19.996093-8.957032-19.996093-20zm98.894531 331.96875-32.898438-60.171876v-52.808593c0-11.046875-8.953124-20-20-20-11.042968 0-19.996093 8.953125-19.996093 20v36.945312h-351.980469v-235.933593h8c11.042969 0 19.996094-8.957032 19.996094-20 0-11.046876-8.953125-20-19.996094-20h-28c-11.042969 0-20 8.953124-20 20v268.140624l-34.898438 63.832032c-8.398437 15.359375-8.019531 33.625 1.015626 48.859375 9.316406 15.714843 25.742187 25.09375 43.933593 25.09375h410.878907c17.871093 0 33.976562-9.167969 43.082031-24.523438 9.085937-15.324219 9.410156-33.800781.863281-49.433593zm-35.265625 29.03125c-.878906 1.480468-3.484375 4.929687-8.679687 4.929687h-137c-.546876-10.554687-9.253907-18.949219-19.945313-18.949219h-98.992187c-10.691407 0-19.398438 8.394532-19.945313 18.949219h-135c-5.8125 0-8.761719-4.207031-9.523437-5.496094-1.050782-1.769531-2.484376-5.324219-.328126-9.273437l30.195313-55.226563h369.195313l30.195312 55.226563c2.363281 4.324218.90625 8.019531-.171875 9.839844zm0 0" fill="url(#a)"/></svg>