<?xml version="1.0"?>
<svg xmlns="http://www.w3.org/2000/svg" xmlns:xlink="http://www.w3.org/1999/xlink" version="1.1" id="Capa_1" x="0px" y="0px" viewBox="0 0 512 512" style="enable-background:new 0 0 512 512;" xml:space="preserve" width="512px" height="512px" class=""><g><script xmlns="" class="active-path" style="fill:#4CDBBE" data-old_color="#57F6D6"/><g>
	<g>
		<path d="M302,477V376H0v71c0,35.841,29.159,65,65,65h272C317.701,512,302,496.299,302,477z" data-original="#000000" class="active-path" data-old_color="#57F6D6" fill="#4CDBBE"/>
	</g>
</g><g>
	<g>
		<path d="M467,3.162c-19.33,0-35,15.67-35,35V135h80V65C512,36.136,493.083,11.619,467,3.162z" data-original="#000000" class="active-path" data-old_color="#57F6D6" fill="#4CDBBE"/>
	</g>
</g><g>
	<g>
		<path d="M165,0c-35.898,0-65,29.102-65,65v281h232v123.634c0,19.33,15.67,35,35,35c20.778-10.859,35-32.611,35-57.634V35    c0-19.299,15.701-35,35-35H165z M318,234c0,6.839-1.035,13.44-2.948,19.66l31.783,18.35l-15,25.98l-31.824-18.374    c-8.975,9.636-20.746,16.623-34.011,19.669V336h-30v-36.714c-13.265-3.047-25.036-10.033-34.011-19.669l-31.824,18.374l-15-25.98    l31.783-18.35C185.035,247.44,184,240.839,184,234s1.035-13.44,2.948-19.66l-31.783-18.35l15-25.98l31.824,18.374    c8.975-9.636,20.746-16.623,34.011-19.669V132h30v36.714c13.265,3.047,25.036,10.033,34.011,19.669l31.824-18.374l15,25.98    l-31.783,18.35C316.965,220.56,318,227.161,318,234z" data-original="#000000" class="active-path" data-old_color="#57F6D6" fill="#4CDBBE"/>
	</g>
</g><g>
	<g>
		<path d="M251,197c-20.401,0-37,16.598-37,37c0,20.402,16.599,37,37,37s37-16.598,37-37C288,213.598,271.401,197,251,197z" data-original="#000000" class="active-path" data-old_color="#57F6D6" fill="#4CDBBE"/>
	</g>
</g></g> </svg>
