<?xml version="1.0"?>
<svg xmlns="http://www.w3.org/2000/svg" height="512px" viewBox="0 0 512 512" width="512px" class=""><g><script xmlns="" class="active-path" style="fill:#000000" data-old_color="#00FFE2"/><path d="m331 422h-42.101562c-7.96875 6.539062-16.125 12.925781-24.710938 18.515625l-8.1875 5.332031-8.1875-5.332031c-8.515625-5.542969-16.597656-11.988281-24.566406-18.515625h-42.246094v43.03125c20.835938 17.738281 43.617188 31.273438 68.289062 43.613281l6.710938 3.355469 6.710938-3.355469c24.671874-12.339843 47.453124-25.875 68.289062-43.613281zm0 0" data-original="#000000" class="active-path" data-old_color="#00FFE2" fill="#000000"/><path d="m129.789062 512-90-90h-39.789062l30 45-30 45zm0 0" data-original="#000000" class="active-path" data-old_color="#00FFE2" fill="#000000"/><path d="m151 490.789062v-68.789062h-68.789062zm0 0" data-original="#000000" class="active-path" data-old_color="#00FFE2" fill="#000000"/><path d="m451 60h-15c-112.398438 0-165.554688-53.015625-180-60-14.03125 6.785156-67.511719 60-180 60h-15v143.761719c0 32.757812 4.925781 67 14.148438 98.238281h62.964843c-11.171875-30.699219-17.113281-64.921875-17.113281-98.238281v-86.472657l12.496094-2.125c71.265625-12.085937 117.765625-43.910156 122.503906-46.183593 5.246094 2.515625 49.945312 33.875 122.503906 46.183593l12.496094 2.125v86.472657c0 33.316406-5.941406 67.539062-17.109375 98.238281h62.960937c9.222657-31.238281 14.148438-65.480469 14.148438-98.238281zm0 0" data-original="#000000" class="active-path" data-old_color="#00FFE2" fill="#000000"/><path d="m361 203.761719v-61.351563c-36.796875-7.542968-72.027344-20.5625-105-38.800781-32.972656 18.234375-68.203125 31.257813-105 38.800781v61.351563c0 33.527343 6.707031 67.789062 19.335938 98.238281h171.328124c12.628907-30.449219 19.335938-64.710938 19.335938-98.238281zm-120 71.847656-55.605469-55.605469 21.210938-21.210937 34.394531 34.394531 64.394531-64.394531 21.210938 21.210937zm0 0" data-original="#000000" class="active-path" data-old_color="#00FFE2" fill="#000000"/><path d="m61 332h390v60h-390zm0 0" data-original="#000000" class="active-path" data-old_color="#00FFE2" fill="#000000"/><path d="m472.210938 422-90 90h129.789062l-31-45 31-45zm0 0" data-original="#000000" class="active-path" data-old_color="#00FFE2" fill="#000000"/><path d="m429.789062 422h-68.789062v68.789062zm0 0" data-original="#000000" class="active-path" data-old_color="#00FFE2" fill="#000000"/></g> </svg>
