<?xml version="1.0" standalone="no"?>
<!DOCTYPE svg PUBLIC "-//W3C//DTD SVG 20010904//EN"
 "http://www.w3.org/TR/2001/REC-SVG-20010904/DTD/svg10.dtd">
<svg version="1.0" xmlns="http://www.w3.org/2000/svg"
 width="2880.000000pt" height="1800.000000pt" viewBox="0 0 2880.000000 1800.000000"
 preserveAspectRatio="xMidYMid meet">
<metadata>
Created by potrace 1.15, written by Peter Selinger 2001-2017
</metadata>
<g transform="translate(0.000000,1800.000000) scale(0.100000,-0.100000)"
fill="#000000" stroke="none">
<path d="M15348 17688 c-2 -172 0 -316 3 -321 3 -4 137 -6 297 -5 l292 3 -23
35 c-13 19 -36 56 -50 82 -14 26 -44 76 -66 111 -23 35 -41 69 -41 76 0 6 -4
11 -10 11 -5 0 -10 5 -10 12 0 6 -6 19 -14 27 -17 20 -75 120 -83 144 -3 9 -8
17 -12 17 -4 0 -20 27 -36 60 l-30 59 -107 1 -107 0 -3 -312z"/>
<path d="M24980 17706 c0 -162 -3 -303 -7 -313 -7 -17 -6 -17 20 0 14 9 33 17
40 17 8 0 20 7 27 15 7 9 38 28 69 43 67 33 161 86 216 120 22 14 76 44 120
67 90 46 128 68 135 75 3 3 23 14 45 25 22 10 64 34 93 52 29 18 54 33 56 33
14 0 96 54 89 59 -5 3 -22 27 -38 53 l-30 48 -417 0 -418 0 0 -294z"/>
<path d="M26545 17983 c-5 -10 -7 -26 -6 -36 1 -9 -5 -20 -13 -23 -9 -3 -16
-13 -16 -21 0 -8 -4 -11 -10 -8 -6 4 -10 -6 -10 -23 0 -25 -5 -30 -30 -35 -25
-6 -30 -11 -30 -36 0 -17 -10 -49 -22 -72 -19 -37 -23 -40 -34 -25 -9 12 -14
14 -19 5 -4 -6 -2 -14 4 -18 9 -6 8 -15 -3 -36 -8 -16 -13 -32 -10 -37 3 -4
-2 -11 -10 -14 -9 -3 -16 -14 -16 -24 0 -11 -4 -22 -10 -25 -5 -3 -10 -15 -10
-26 0 -10 5 -19 10 -19 6 0 10 9 10 19 0 11 11 32 25 47 14 15 25 33 25 40 0
8 4 14 9 14 5 0 11 8 15 18 3 9 20 41 36 71 20 36 28 62 25 80 -3 14 -2 20 1
14 9 -20 28 -15 40 10 20 41 49 92 55 97 7 6 39 67 39 75 0 13 -39 3 -45 -12z"/>
<path d="M26662 17988 c-7 -7 -12 -17 -12 -24 0 -6 -7 -14 -15 -18 -8 -3 -15
-12 -15 -21 0 -8 -4 -15 -10 -15 -5 0 -10 -9 -10 -20 0 -11 -3 -20 -7 -20 -11
0 -43 -58 -43 -76 0 -8 -4 -14 -8 -14 -5 0 -17 -17 -28 -37 -10 -21 -21 -40
-24 -43 -13 -13 -60 -91 -60 -100 0 -5 -4 -10 -8 -10 -4 0 -13 -12 -19 -27
-15 -37 -46 -87 -55 -91 -5 -2 -8 -10 -8 -17 0 -8 -6 -20 -12 -27 -12 -13 -38
-54 -38 -60 0 -2 126 -3 280 -3 l280 0 0 318 c0 186 -4 317 -9 317 -16 0 -26
-129 -26 -343 0 -114 -3 -207 -7 -207 -14 0 -9 -23 9 -42 16 -17 9 -18 -190
-18 -177 0 -207 2 -207 15 0 19 -14 19 -29 1 -18 -21 -54 -28 -47 -9 3 8 9 25
12 38 4 16 11 21 25 18 21 -6 25 7 9 23 -8 8 -6 15 5 24 8 7 15 19 15 26 0 8
5 14 10 14 6 0 10 7 10 16 0 14 3 14 15 4 12 -10 18 -10 30 0 19 16 19 34 0
27 -20 -8 -28 8 -10 23 8 7 15 21 15 31 0 11 4 19 10 19 5 0 16 15 25 34 13
27 21 33 37 28 17 -4 20 -2 15 11 -4 10 -10 24 -13 32 -8 20 14 19 54 -1 18
-8 32 -22 32 -30 0 -21 17 -17 34 8 22 31 20 39 -9 32 -21 -5 -25 -3 -25 15 0
12 5 21 10 21 6 0 10 5 10 12 0 6 -13 0 -28 -15 -35 -34 -42 -34 -42 -1 0 17
6 28 20 31 11 3 20 14 20 24 0 10 5 21 10 24 6 3 10 17 10 30 0 18 4 22 20 18
11 -3 20 0 20 6 0 6 -4 11 -10 11 -5 0 -10 7 -10 15 0 8 5 15 10 15 6 0 10 5
10 10 0 14 -13 13 -28 -2z"/>
<path d="M27721 17979 c11 -11 24 -17 29 -14 5 3 12 0 17 -8 4 -7 33 -25 63
-41 30 -16 67 -35 82 -43 15 -8 30 -18 33 -24 4 -5 15 -9 26 -9 10 0 19 -3 19
-8 0 -4 17 -16 38 -27 20 -11 39 -22 42 -25 12 -12 51 -30 65 -30 9 0 18 -7
21 -15 4 -8 15 -15 25 -15 10 0 19 -4 19 -10 0 -5 9 -10 19 -10 11 0 23 -4 26
-10 9 -14 52 -12 58 3 4 10 7 10 18 0 7 -7 38 -13 69 -13 60 0 90 -18 90 -53
0 -9 5 -17 10 -17 14 0 12 -27 -2 -33 -19 -7 4 -41 31 -45 11 -2 21 -8 21 -13
0 -5 6 -9 14 -9 8 0 21 -6 28 -13 7 -6 34 -23 61 -36 26 -13 52 -30 58 -38 6
-7 18 -13 26 -13 11 0 13 4 5 13 -5 6 -22 35 -37 62 -16 28 -31 52 -34 55 -3
3 -15 22 -26 43 -11 20 -22 37 -25 37 -4 0 -12 16 -20 35 -7 19 -19 36 -27 39
-7 3 -13 15 -13 26 0 11 -4 20 -10 20 -5 0 -10 9 -10 20 0 11 -3 20 -8 20 -4
0 -16 17 -27 38 -11 20 -23 39 -26 42 -3 3 -17 26 -31 51 -47 85 -51 89 -83
89 -22 0 -36 -9 -52 -33 -21 -29 -23 -30 -23 -9 0 13 4 20 10 17 6 -3 10 1 10
10 0 13 -34 15 -300 15 -299 -1 -299 -1 -279 -21z"/>
<path d="M26027 17838 c-24 -18 -38 -58 -19 -58 4 0 16 -18 26 -40 11 -22 23
-40 28 -40 4 0 8 -7 8 -17 0 -9 11 -31 25 -49 14 -18 25 -36 25 -40 0 -4 10
-21 23 -38 12 -17 29 -44 37 -61 8 -16 21 -36 28 -43 6 -7 12 -19 12 -26 0 -8
7 -20 16 -27 15 -13 17 -11 12 17 -3 24 -1 31 9 27 7 -3 13 2 13 10 0 8 7 17
15 21 20 7 19 29 -3 49 -23 21 -35 11 -21 -15 12 -22 12 -21 -16 -36 -20 -11
-21 -10 -61 67 -17 33 -17 34 4 52 22 17 29 39 13 39 -5 0 -16 -12 -26 -26
-12 -19 -20 -23 -28 -15 -9 9 -8 17 1 31 7 12 8 20 2 20 -5 0 -10 -4 -10 -10
0 -5 -4 -10 -10 -10 -5 0 -10 9 -10 20 0 11 -4 20 -10 20 -5 0 -10 7 -10 15 0
8 5 15 10 15 6 0 10 7 10 15 0 9 -9 15 -23 15 -24 0 -52 34 -41 51 3 6 -3 13
-15 16 -26 7 -26 11 1 40 28 30 20 37 -15 11z"/>
<path d="M25885 17834 c-19 -14 -18 -15 18 -45 40 -33 49 -54 19 -44 -11 3
-29 -3 -45 -15 -14 -11 -32 -20 -40 -20 -8 0 -17 -7 -21 -15 -3 -8 -12 -15
-21 -15 -8 0 -15 -4 -15 -8 0 -4 18 -8 41 -7 33 1 44 6 57 28 20 32 42 35 42
7 0 -11 8 -23 18 -27 9 -3 41 -31 69 -62 50 -53 65 -81 43 -81 -5 0 -10 6 -10
14 0 18 -30 30 -44 16 -7 -7 -5 -10 5 -10 8 0 23 -14 33 -31 16 -28 20 -30 28
-14 9 16 11 16 23 -2 11 -16 27 -69 30 -98 0 -5 -4 -13 -10 -17 -12 -9 -730
-10 -762 -2 -14 4 -23 14 -23 25 0 12 -7 19 -20 19 -11 0 -20 -6 -20 -14 0 -8
-14 -19 -31 -25 -26 -9 -37 -7 -71 12 -30 16 -42 19 -45 10 -3 -7 -12 -13 -21
-13 -16 -1 -52 -22 -52 -31 0 -3 701 -2 1103 1 21 0 23 28 2 36 -8 4 -15 15
-15 25 0 10 -4 19 -10 19 -5 0 -10 9 -10 20 0 11 -4 20 -9 20 -5 0 -11 8 -15
18 -6 18 -27 53 -37 62 -3 3 -8 12 -12 20 -8 17 -30 53 -37 60 -3 3 -14 22
-25 43 -11 20 -23 37 -27 37 -5 0 -8 7 -8 17 0 9 -11 30 -23 47 -13 17 -26 36
-28 43 -3 8 -9 8 -24 -3z"/>
<path d="M630 17299 c0 -7 11 -27 25 -45 14 -18 25 -40 25 -48 0 -9 3 -16 8
-16 7 0 12 -8 47 -76 11 -21 22 -41 25 -44 13 -12 60 -91 60 -99 0 -5 3 -11 8
-13 7 -3 31 -45 56 -95 15 -30 22 -29 86 12 30 19 60 35 67 35 6 0 13 3 15 8
2 4 37 25 78 46 41 21 89 49 107 62 17 13 37 24 43 24 6 0 28 11 48 25 20 14
42 25 49 25 7 0 13 5 13 10 0 6 9 10 19 10 11 0 22 4 26 9 3 5 45 31 93 58 48
26 105 58 127 71 22 12 48 25 58 29 9 3 17 9 17 14 0 5 -247 9 -550 9 -412 0
-550 -3 -550 -11z"/>
<path d="M5614 17265 c-4 -8 -15 -15 -25 -15 -10 0 -19 -3 -19 -8 0 -4 -17
-15 -37 -25 -49 -23 -117 -60 -123 -68 -3 -3 -21 -14 -40 -24 -19 -10 -46 -24
-60 -32 -14 -8 -37 -20 -52 -26 -16 -6 -28 -15 -28 -19 0 -4 -10 -8 -21 -8
-16 0 -20 -5 -17 -18 4 -15 1 -18 -18 -14 -13 2 -35 -4 -51 -15 -15 -10 -46
-28 -68 -38 -22 -11 -41 -23 -43 -27 -2 -5 -7 -8 -12 -8 -10 0 -128 -68 -151
-87 -8 -7 -23 -13 -32 -13 -9 0 -17 -4 -17 -10 0 -5 -9 -10 -20 -10 -11 0 -20
-4 -20 -10 0 -5 -11 -12 -25 -16 -14 -3 -25 -10 -25 -15 0 -5 -7 -9 -15 -9 -8
0 -15 -4 -15 -10 0 -5 -9 -10 -19 -10 -11 0 -23 -5 -26 -11 -4 -5 -17 -14 -28
-19 -12 -6 -49 -26 -82 -45 -33 -19 -72 -40 -87 -46 -16 -6 -28 -15 -28 -20 0
-5 -9 -9 -20 -9 -11 0 -20 -3 -20 -8 0 -4 -17 -15 -37 -25 -43 -19 -71 -36
-90 -54 -7 -6 -29 -17 -48 -24 -19 -7 -35 -17 -35 -21 0 -4 -7 -8 -16 -8 -8 0
-30 -11 -48 -25 -18 -14 -36 -25 -40 -25 -3 0 -24 -11 -46 -25 -22 -14 -46
-25 -55 -25 -8 0 -15 -4 -15 -9 0 -5 -8 -12 -17 -15 -10 -4 -38 -17 -63 -31
-32 -17 -39 -24 -24 -24 11 -1 24 -5 30 -10 17 -16 105 -61 118 -61 8 0 16 -7
20 -15 3 -8 12 -15 21 -15 8 0 15 -4 15 -8 0 -4 16 -14 35 -21 19 -7 40 -18
47 -24 7 -7 29 -21 48 -30 19 -10 67 -36 105 -57 39 -22 90 -50 114 -62 24
-13 52 -27 62 -33 11 -5 19 -13 19 -17 0 -5 9 -8 19 -8 11 0 22 -4 26 -9 3 -6
18 -16 33 -24 15 -7 49 -26 76 -41 40 -23 53 -26 72 -17 13 6 24 7 24 2 0 -5
-6 -11 -12 -14 -9 -3 -7 -10 7 -20 18 -15 21 -14 29 4 5 10 13 19 18 19 4 0 8
5 8 12 0 6 11 26 25 44 14 18 25 40 25 48 0 9 3 16 8 16 4 0 16 18 26 40 11
22 22 40 26 40 3 0 12 16 20 35 8 19 17 35 21 35 4 0 9 8 13 18 6 19 19 40 53
89 13 17 23 39 23 47 0 9 5 16 10 16 6 0 10 9 10 19 0 10 6 21 13 24 6 2 25
29 41 58 16 30 31 56 35 59 10 8 31 49 31 61 0 6 6 17 13 24 25 29 33 41 50
78 10 20 22 37 27 37 6 0 10 9 10 20 0 11 5 20 10 20 6 0 10 7 10 15 0 8 4 15
10 15 5 0 12 11 16 25 3 14 9 25 13 25 3 0 12 15 20 33 8 17 25 46 38 63 13
17 23 38 23 47 0 10 5 17 10 17 6 0 15 10 20 23 5 12 21 40 35 62 14 22 28 47
31 55 4 8 17 29 28 45 12 17 28 44 36 60 8 17 25 44 37 61 13 17 23 34 23 38
0 4 7 14 15 22 8 9 15 20 15 25 0 15 -20 10 -26 -6z"/>
<path d="M9538 15111 c-15 -16 -36 -47 -47 -68 -12 -21 -32 -56 -46 -78 -14
-22 -28 -48 -31 -57 -4 -10 -10 -18 -15 -18 -5 0 -9 -5 -9 -10 0 -6 -18 -39
-40 -74 -22 -35 -40 -66 -40 -70 0 -9 -74 -120 -82 -124 -5 -2 -8 -12 -8 -23
0 -10 -3 -19 -8 -19 -4 0 -16 -17 -27 -37 -10 -21 -30 -50 -44 -65 l-25 -28
437 0 436 0 -52 78 c-29 42 -59 91 -67 107 -8 17 -25 44 -37 61 -13 17 -23 34
-23 38 0 4 -16 32 -35 62 -19 30 -35 57 -35 60 0 2 -5 10 -10 17 -14 15 -147
236 -158 260 -7 16 -10 15 -34 -12z m33 -332 c-1 -167 -4 -305 -7 -308 -18
-19 -24 49 -23 274 1 138 0 255 -1 260 -7 33 14 95 28 81 2 -3 4 -141 3 -307z"/>
<path d="M14680 15118 c-7 -16 -16 -28 -19 -28 -3 0 -15 -20 -26 -45 -11 -25
-23 -45 -27 -45 -5 0 -8 -5 -8 -11 0 -6 -11 -25 -25 -43 -14 -18 -25 -38 -25
-44 0 -7 -4 -12 -9 -12 -5 0 -11 -10 -15 -23 -3 -12 -14 -32 -26 -44 -11 -12
-20 -28 -20 -34 0 -15 -53 -99 -62 -99 -5 0 -8 -9 -8 -20 0 -13 7 -20 20 -20
11 0 20 -4 20 -10 0 -5 7 -10 16 -10 9 0 22 -8 29 -17 11 -15 15 -15 29 -4 14
12 16 11 16 -5 0 -14 19 -28 65 -49 36 -16 65 -32 65 -35 0 -3 17 -14 38 -25
20 -11 43 -28 50 -37 12 -16 33 -18 187 -18 l175 0 -32 45 c-31 44 -32 45 -50
25 -10 -11 -23 -20 -28 -20 -17 0 -11 19 10 30 19 10 29 50 12 50 -8 0 -15 12
-47 79 -11 22 -23 41 -27 41 -8 0 -38 59 -38 77 0 7 -4 13 -10 13 -5 0 -10 6
-10 14 0 8 -7 16 -15 20 -8 3 -15 12 -15 21 0 8 -4 15 -10 15 -5 0 -10 7 -10
16 0 8 -11 30 -25 48 -14 18 -25 38 -25 44 0 7 -4 12 -10 12 -5 0 -10 6 -10
14 0 8 -6 21 -12 28 -7 7 -20 27 -28 43 -8 17 -17 32 -20 35 -3 3 -11 16 -17
30 l-11 25 -12 -27z"/>
<path d="M10020 14475 c0 -14 6 -28 13 -30 6 -3 197 -4 422 -3 377 3 406 4
363 18 -27 8 -48 17 -48 21 0 9 -34 4 -51 -7 -19 -11 -630 -5 -645 7 -9 7 -15
5 -23 -8 -9 -16 -10 -16 -11 -1 0 28 -20 31 -20 3z"/>
<path d="M12585 14481 c-4 -7 -1 -18 5 -26 18 -22 802 -22 794 -1 -5 12 -69
14 -391 14 -286 0 -388 4 -393 12 -6 9 -9 9 -15 1z"/>
<path d="M8269 14453 c-19 -10 57 -13 399 -13 331 0 422 3 422 13 0 18 -785
18 -821 0z"/>
<path d="M7981 14398 c-17 -47 -17 -53 -2 -64 13 -10 13 -15 -3 -39 -25 -39
-24 -313 2 -357 14 -24 15 -30 3 -38 -11 -6 -14 -35 -14 -127 1 -65 -3 -126
-8 -135 -5 -9 -5 -18 0 -20 4 -2 15 -23 24 -48 14 -42 15 -17 16 403 1 246 -1
447 -4 447 -3 0 -9 -10 -14 -22z"/>
<path d="M20803 13996 c1 -269 6 -421 12 -423 13 -4 8 804 -5 826 -6 10 -9
-137 -7 -403z"/>
<path d="M26909 13579 c-1 -269 -2 -494 -3 -499 -1 -11 1792 -16 1802 -5 3 3
-4 5 -16 5 -11 0 -24 5 -27 11 -4 6 -23 9 -44 6 -20 -2 -28 -2 -18 0 29 7 19
19 -40 51 -120 62 -148 77 -153 84 -3 4 -17 12 -30 18 -14 6 -43 22 -65 35
-22 13 -56 32 -75 41 -19 10 -52 29 -74 42 -34 21 -42 22 -62 11 -29 -15 -45
-4 -20 14 16 12 14 15 -23 32 -22 11 -41 23 -41 28 0 4 -9 7 -20 7 -11 0 -20
4 -20 10 0 5 -11 12 -25 16 -14 3 -25 10 -25 15 0 5 -7 9 -16 9 -8 0 -30 11
-48 25 -18 14 -38 25 -44 25 -6 0 -37 16 -68 36 -31 20 -70 43 -87 51 -63 29
-77 38 -77 45 0 5 -6 8 -14 8 -7 0 -19 7 -26 15 -7 8 -21 15 -31 15 -11 0 -19
5 -19 10 0 6 -9 10 -20 10 -11 0 -20 4 -20 9 0 5 -10 13 -22 17 -13 3 -34 15
-48 24 -50 35 -164 91 -176 86 -6 -2 -14 4 -17 15 -3 10 -12 19 -21 19 -9 0
-16 5 -16 10 0 6 -9 10 -19 10 -11 0 -23 4 -26 10 -3 5 -23 17 -43 27 -20 9
-39 20 -42 25 -3 4 -22 14 -43 23 -20 8 -37 19 -37 24 0 5 -9 11 -20 14 -20 5
-20 0 -21 -484z"/>
<path d="M23983 13515 c-13 -19 -23 -39 -23 -45 0 -5 -4 -10 -10 -10 -5 0 -10
-5 -10 -11 0 -7 -18 -40 -40 -75 -22 -35 -40 -68 -40 -74 0 -5 -4 -10 -10 -10
-5 0 -10 -5 -10 -10 0 -6 -27 -53 -60 -106 -33 -52 -60 -98 -60 -102 0 -8
1139 -6 1147 2 4 3 -2 6 -13 7 -10 0 -41 14 -69 29 -27 16 -75 41 -105 56 -30
15 -69 38 -86 51 -17 13 -34 23 -38 23 -4 0 -39 19 -79 41 -40 23 -92 53 -117
67 -25 14 -76 42 -115 61 -38 20 -76 42 -84 49 -8 8 -37 24 -66 37 -29 13 -58
31 -65 40 -18 21 -22 19 -47 -20z"/>
<path d="M13940 13175 l0 -255 30 0 30 0 0 255 0 255 -30 0 -30 0 0 -255z"/>
<path d="M8825 13391 c-77 -47 -111 -130 -103 -257 8 -140 75 -214 194 -214
62 0 109 20 145 63 43 51 62 188 38 281 -13 54 -62 114 -105 132 -48 20 -133
18 -169 -5z m160 -55 c40 -26 59 -83 59 -171 0 -96 -19 -146 -66 -175 -71 -43
-150 -11 -181 75 -22 64 -18 168 10 222 34 67 116 90 178 49z"/>
<path d="M9210 13406 c0 -3 0 -113 -1 -243 l0 -238 31 -3 30 -3 0 100 0 101
55 0 54 0 53 -100 c50 -95 55 -100 86 -100 17 0 32 5 32 10 0 6 -22 50 -50 99
-27 49 -50 93 -50 98 0 5 12 16 26 23 35 19 54 60 54 114 0 60 -16 92 -59 118
-29 18 -54 23 -148 26 -62 3 -113 2 -113 -2z m213 -67 c26 -12 47 -47 47 -80
0 -57 -51 -89 -140 -89 l-60 0 0 90 0 90 65 0 c35 0 75 -5 88 -11z"/>
<path d="M9620 13164 l0 -247 104 5 c89 4 110 8 149 31 66 39 97 105 97 209 0
173 -82 248 -272 248 l-78 0 0 -246z m217 166 c50 -30 68 -73 68 -165 0 -127
-46 -183 -156 -188 l-54 -2 -3 188 -2 187 57 0 c40 0 68 -6 90 -20z"/>
<path d="M10189 13383 c-5 -16 -46 -122 -90 -236 -43 -114 -79 -213 -79 -218
0 -6 14 -9 31 -7 29 3 34 9 53 63 l21 60 101 3 102 3 23 -66 c22 -63 24 -65
57 -65 18 0 32 4 30 9 -1 5 -43 115 -93 245 -88 230 -91 236 -118 236 -21 0
-30 -7 -38 -27z m79 -166 c17 -52 32 -99 32 -105 0 -8 -24 -12 -75 -12 -41 0
-75 3 -75 7 0 15 73 203 79 203 3 0 21 -42 39 -93z"/>
<path d="M10680 13406 c0 -3 0 -113 0 -243 l-1 -238 98 1 c118 1 167 21 210
86 26 39 28 49 28 147 0 129 -17 171 -89 215 -41 26 -58 30 -146 34 -55 3
-100 2 -100 -2z m230 -91 c35 -33 50 -79 50 -150 0 -113 -39 -167 -132 -186
-92 -19 -88 -26 -88 187 l0 186 70 -4 c60 -3 73 -7 100 -33z"/>
<path d="M12214 13373 c16 -44 151 -410 161 -435 5 -11 18 -18 35 -18 26 0 30
6 114 233 47 127 86 238 86 245 0 9 -11 12 -32 10 l-32 -3 -63 -180 c-34 -99
-63 -186 -63 -192 -1 -40 -22 8 -81 180 l-66 192 -36 3 -37 3 14 -38z"/>
<path d="M16374 13396 c-45 -20 -74 -62 -74 -108 0 -76 40 -114 160 -153 71
-23 99 -42 106 -71 14 -54 -30 -94 -104 -94 -47 0 -106 36 -110 68 -3 18 -10
22 -38 22 -32 0 -34 -2 -28 -27 18 -73 83 -113 183 -113 69 0 108 16 140 56
26 33 28 109 5 142 -18 26 -78 58 -145 78 -87 26 -130 81 -96 125 46 60 165
47 189 -22 8 -23 16 -29 40 -29 29 0 30 2 24 32 -8 39 -40 76 -83 94 -41 18
-129 17 -169 0z"/>
<path d="M11500 13325 c0 -44 0 -45 -33 -45 -29 0 -33 -3 -32 -22 1 -18 9 -24
33 -26 l32 -3 0 -128 c0 -115 2 -131 21 -155 17 -21 29 -26 65 -26 40 0 44 2
44 25 0 19 -5 25 -23 25 -41 0 -47 17 -47 142 l0 118 35 0 c30 0 35 3 35 24 0
21 -6 25 -32 28 -31 3 -33 6 -36 46 -3 39 -5 42 -33 42 -28 0 -29 -2 -29 -45z"/>
<path d="M15010 13325 c0 -45 0 -45 -35 -45 -31 0 -35 -3 -35 -25 0 -22 4 -25
35 -25 l35 0 0 -133 c0 -163 6 -177 81 -177 46 0 49 2 49 25 0 18 -5 25 -19
25 -49 0 -51 5 -51 136 l0 124 30 0 c25 0 30 4 30 25 0 21 -5 25 -30 25 -29 0
-30 2 -30 45 0 43 -1 45 -30 45 -29 0 -30 -2 -30 -45z"/>
<path d="M11173 13271 c-41 -19 -63 -45 -63 -75 0 -24 57 -21 65 3 3 10 19 24
35 31 55 23 110 -8 110 -61 0 -29 -1 -29 -55 -29 -71 0 -132 -24 -150 -61 -30
-57 -12 -120 42 -148 30 -15 103 -13 133 4 32 18 40 18 40 0 0 -10 10 -15 34
-15 34 0 35 0 25 32 -5 18 -9 85 -9 148 0 130 -8 152 -66 176 -45 19 -91 17
-141 -5z m147 -211 c0 -45 -23 -75 -65 -86 -62 -15 -110 29 -87 81 12 26 54
43 115 44 37 1 37 1 37 -39z"/>
<path d="M11774 13276 c-33 -15 -74 -60 -74 -82 0 -25 47 -15 78 16 31 31 68
38 102 20 19 -10 43 -67 34 -81 -3 -5 -29 -9 -59 -9 -62 0 -100 -12 -132 -42
-48 -45 -37 -135 18 -163 36 -19 118 -19 143 0 25 19 36 19 36 0 0 -10 10 -15
33 -15 l32 0 -3 107 c-3 157 -9 190 -40 224 -22 25 -37 31 -82 35 -35 3 -66
-1 -86 -10z m144 -208 c4 -36 -12 -65 -49 -83 -41 -22 -78 -15 -102 18 l-21
27 20 27 c24 32 53 42 109 40 36 -2 40 -5 43 -29z"/>
<path d="M12895 13272 c-44 -27 -58 -49 -58 -88 0 -49 29 -74 121 -104 71 -23
77 -27 80 -55 5 -36 -18 -55 -68 -55 -39 0 -80 23 -80 46 0 9 -11 14 -36 14
-32 0 -35 -2 -29 -22 4 -13 20 -36 36 -53 25 -26 37 -30 96 -33 77 -4 126 18
143 64 26 68 -7 108 -116 144 -70 22 -79 28 -82 52 -2 18 4 31 20 42 34 24 66
19 100 -14 33 -34 78 -41 78 -12 0 71 -131 119 -205 74z"/>
<path d="M13634 13276 c-33 -15 -74 -60 -74 -82 0 -26 51 -15 80 16 20 21 37
30 59 30 39 0 81 -39 81 -75 0 -24 -2 -25 -60 -25 -109 0 -162 -38 -163 -116
0 -41 4 -51 31 -75 27 -24 41 -29 85 -29 31 0 61 6 73 15 25 19 34 19 34 0 0
-10 10 -15 33 -15 l32 0 -3 137 c-3 81 -9 151 -17 169 -23 56 -119 81 -191 50z
m144 -215 c6 -65 -78 -113 -134 -77 -20 14 -25 24 -22 49 4 40 54 69 113 65
37 -3 40 -5 43 -37z"/>
<path d="M14322 13273 c-32 -16 -62 -57 -62 -87 0 -50 41 -85 125 -105 59 -15
85 -35 85 -67 0 -28 -27 -44 -75 -44 -27 0 -44 8 -67 30 -29 29 -78 41 -78 20
0 -25 32 -71 60 -85 37 -19 133 -19 170 0 36 19 52 47 52 92 0 49 -25 71 -118
102 -94 32 -111 52 -71 87 38 32 72 31 109 -6 52 -52 104 -31 63 26 -34 50
-130 68 -193 37z"/>
<path d="M14684 13276 c-33 -15 -74 -60 -74 -82 0 -26 51 -15 80 16 20 21 37
30 59 30 39 0 81 -39 81 -75 0 -24 -2 -25 -60 -25 -109 0 -162 -38 -163 -116
0 -41 4 -51 31 -75 27 -24 41 -29 85 -29 31 0 61 6 73 15 25 19 34 19 34 0 0
-10 10 -15 33 -15 l32 0 -3 137 c-3 81 -9 151 -17 169 -23 56 -119 81 -191 50z
m144 -215 c6 -65 -78 -113 -134 -77 -20 14 -25 24 -22 49 4 40 54 69 113 65
37 -3 40 -5 43 -37z"/>
<path d="M15455 13276 c-66 -30 -97 -88 -96 -179 0 -112 59 -177 160 -177 111
0 167 70 159 201 -4 73 -20 104 -70 142 -34 25 -113 32 -153 13z m126 -62 c27
-24 42 -80 37 -136 -12 -121 -147 -151 -188 -42 -27 70 1 173 53 194 28 12 76
4 98 -16z"/>
<path d="M15857 13270 c-31 -17 -37 -17 -37 -5 0 10 -10 15 -30 15 l-30 0 0
-180 0 -180 30 0 30 0 0 126 c0 69 5 134 10 145 12 21 60 49 85 49 9 0 27 -11
40 -25 24 -23 25 -29 25 -160 l0 -135 30 0 30 0 0 145 c0 90 -4 154 -12 170
-25 54 -104 71 -171 35z"/>
<path d="M17166 13269 c-21 -17 -26 -18 -26 -5 0 11 -9 16 -30 16 l-30 0 0
-180 0 -180 30 0 30 0 0 130 c0 126 1 132 25 155 15 16 36 25 55 25 27 0 30 3
30 30 0 26 -3 30 -29 30 -15 0 -40 -9 -55 -21z"/>
<path d="M17725 13276 c-66 -30 -95 -84 -95 -179 0 -75 21 -122 70 -155 30
-20 45 -23 103 -20 60 3 71 7 98 35 31 31 31 31 10 42 -18 10 -26 8 -48 -8
-17 -14 -40 -21 -68 -21 -37 0 -48 5 -75 36 -19 22 -30 44 -28 57 3 21 8 22
121 22 l117 0 0 45 c0 53 -24 106 -61 133 -34 25 -105 31 -144 13z"/>
<path d="M12680 13100 l0 -180 30 0 30 0 0 180 0 180 -30 0 -30 0 0 -180z"/>
<path d="M13190 13140 c0 -191 16 -220 117 -220 26 0 60 7 76 14 23 13 27 13
27 0 0 -9 11 -14 30 -14 l30 0 0 180 0 180 -30 0 -30 0 0 -130 c0 -126 -1
-132 -25 -155 -31 -32 -86 -34 -115 -5 -18 18 -20 33 -20 155 l0 135 -30 0
-30 0 0 -140z"/>
<path d="M14107 13103 l2 -178 30 -3 31 -3 0 180 0 181 -32 0 -33 0 2 -177z"/>
<path d="M15210 13100 l0 -180 30 0 30 0 0 180 0 180 -30 0 -30 0 0 -180z"/>
<path d="M16701 13148 c1 -145 9 -179 46 -208 31 -24 119 -28 149 -5 25 19 34
19 34 0 0 -10 10 -15 30 -15 l30 0 0 180 0 180 -32 0 -33 0 3 -116 c2 -72 -1
-127 -8 -144 -21 -50 -101 -67 -136 -29 -16 18 -20 40 -22 155 l-4 134 -29 0
-30 0 2 -132z"/>
<path d="M17309 13203 c16 -43 45 -124 66 -180 33 -91 40 -103 61 -103 13 0
24 1 24 3 0 1 29 82 64 180 l63 177 -31 0 -32 0 -42 -130 c-24 -71 -45 -130
-47 -130 -2 0 -23 59 -47 130 l-42 130 -33 0 -32 0 28 -77z"/>
<path d="M17960 13276 c0 -2 27 -78 60 -169 33 -90 60 -173 60 -183 0 -35 -38
-84 -70 -91 -23 -4 -30 -11 -30 -29 0 -21 5 -24 35 -24 67 0 86 31 170 272 41
119 75 220 75 223 0 3 -15 5 -32 3 -32 -3 -33 -4 -71 -127 -21 -67 -42 -119
-47 -115 -4 5 -25 62 -46 127 l-38 117 -33 0 c-18 0 -33 -2 -33 -4z"/>
<path d="M25540 13095 c-8 -10 -39 -15 -108 -18 -54 -1 67 -4 267 -5 200 -1
361 1 357 6 -4 4 -37 7 -74 8 -40 0 -67 5 -70 12 -3 9 -56 12 -182 12 -144 0
-180 -3 -190 -15z"/>
<path d="M23617 13024 c-4 -4 -126 -6 -272 -5 -146 1 -274 -1 -285 -4 -18 -6
-19 -18 -19 -291 l0 -284 130 0 c108 0 129 2 129 15 0 8 5 15 10 15 6 0 10 5
10 10 0 6 27 53 60 106 33 52 60 97 60 100 0 3 15 28 33 57 18 29 36 59 41 67
4 8 12 24 19 35 37 62 62 101 66 105 4 3 12 17 20 32 13 26 12 56 -2 42z"/>
<path d="M26909 13006 c-2 -2 -3 -131 -1 -285 l3 -281 353 0 c274 0 356 3 360
13 5 10 7 10 12 0 7 -15 54 -18 54 -4 0 5 10 13 23 17 12 4 24 9 27 13 8 10
44 31 63 37 9 4 17 10 17 15 0 5 7 9 15 9 8 0 29 8 47 18 18 10 60 34 93 52
108 60 123 69 164 94 22 15 47 26 56 26 8 0 15 4 15 9 0 5 11 12 25 15 14 4
25 11 25 16 0 6 9 10 20 10 11 0 20 3 20 8 0 4 18 16 40 26 22 11 40 23 40 28
0 4 6 8 13 8 15 0 47 16 112 55 22 14 70 39 107 57 37 18 68 36 68 40 0 8
-1763 11 -1771 4z"/>
<path d="M28670 12940 c-20 -16 -22 -22 -11 -29 21 -14 -10 -21 -32 -7 -14 9
-21 7 -31 -6 -7 -10 -19 -18 -25 -18 -7 0 -33 -15 -59 -32 -38 -26 -43 -33
-28 -36 11 -2 25 3 31 12 12 16 45 22 45 8 0 -4 -14 -16 -31 -26 -27 -16 -34
-16 -56 -5 -20 11 -26 11 -33 -1 -5 -8 -17 -15 -27 -15 -10 0 -18 -7 -17 -16
1 -11 -6 -14 -27 -11 -17 3 -29 0 -29 -7 0 -6 -7 -11 -15 -11 -8 0 -15 -4 -15
-10 0 -5 -11 -10 -24 -10 -13 0 -27 -7 -30 -16 -4 -11 0 -14 16 -12 11 2 23
-3 25 -9 3 -7 -3 -13 -11 -13 -9 0 -26 6 -37 13 -17 10 -23 10 -26 0 -3 -7
-13 -13 -23 -13 -10 0 -22 -4 -25 -10 -3 -5 -15 -10 -26 -10 -11 0 -22 -7 -25
-15 -4 -8 -15 -15 -25 -15 -10 0 -19 -4 -19 -8 0 -5 -26 -22 -57 -37 -32 -16
-60 -32 -63 -35 -5 -5 -47 -28 -102 -57 -16 -8 -28 -18 -28 -23 0 -5 -7 -7
-15 -4 -8 4 -15 1 -15 -5 0 -8 68 -11 228 -11 212 0 229 1 241 19 14 19 14 19
34 0 15 -14 36 -19 73 -19 47 0 52 2 58 25 4 14 11 25 16 25 6 0 10 9 10 19 0
11 5 23 11 26 6 4 8 13 5 21 -3 8 1 14 8 14 8 0 17 7 20 16 9 23 8 24 -14 24
-11 0 -20 5 -20 10 0 6 -4 10 -10 10 -13 0 -53 40 -47 47 7 6 44 -17 73 -44
27 -27 44 -29 44 -8 0 9 9 25 20 37 11 12 20 30 20 40 0 10 7 21 15 24 8 4 15
15 15 25 0 10 4 19 10 19 5 0 17 17 27 38 9 20 23 43 29 49 7 7 18 26 26 43 7
16 16 30 20 30 5 0 8 7 8 15 0 21 -20 18 -50 -5z"/>
<path d="M15950 12170 c0 -28 -3 -30 -35 -30 -38 0 -55 -20 -55 -67 0 -49 24
-72 75 -71 l45 1 0 98 c0 81 -3 99 -15 99 -10 0 -15 -10 -15 -30z"/>
<path d="M16162 12170 c4 -28 2 -30 -28 -30 -56 0 -84 -67 -49 -118 13 -17 24
-21 60 -20 l45 2 0 98 c0 84 -2 98 -16 98 -12 0 -15 -7 -12 -30z"/>
<path d="M8700 12095 c0 -78 3 -95 15 -95 11 0 15 11 15 40 0 32 4 40 18 40
11 0 27 -16 41 -40 12 -22 29 -40 37 -40 12 0 11 8 -7 40 -21 37 -21 41 -6 58
41 45 4 92 -70 92 l-43 0 0 -95z"/>
<path d="M10130 12045 c0 -57 4 -95 10 -95 6 0 10 13 10 29 0 28 2 29 34 24
27 -4 36 -1 50 18 20 30 21 68 0 97 -12 17 -25 22 -60 22 l-44 0 0 -95z"/>
<path d="M12296 12118 c-35 -50 -6 -123 45 -116 20 3 29 0 29 -9 0 -20 -30
-28 -51 -15 -13 8 -20 9 -25 1 -17 -28 64 -40 90 -13 12 11 16 36 16 95 l0 79
-44 0 c-35 0 -48 -5 -60 -22z"/>
<path d="M12700 12045 c0 -57 4 -95 10 -95 6 0 10 13 10 30 0 27 2 29 30 24
43 -9 60 9 60 65 0 58 -12 71 -67 71 l-43 0 0 -95z"/>
<path d="M17381 12126 c-17 -20 -16 -92 0 -112 9 -11 23 -14 47 -10 36 5 40
-9 9 -28 -12 -8 -22 -8 -36 1 -23 14 -35 5 -20 -14 14 -16 53 -17 80 -3 16 9
19 22 19 94 l0 83 -44 1 c-27 1 -48 -3 -55 -12z"/>
<path d="M11220 11830 c0 -28 -3 -30 -35 -30 -40 0 -55 -20 -55 -74 0 -46 22
-66 71 -64 l39 1 0 99 c0 59 -4 98 -10 98 -5 0 -10 -13 -10 -30z"/>
<path d="M11370 11830 c0 -27 -3 -30 -34 -30 -43 0 -61 -22 -60 -72 2 -51 14
-62 69 -64 l45 -2 0 99 c0 59 -4 99 -10 99 -5 0 -10 -13 -10 -30z"/>
<path d="M15860 11830 c0 -28 -3 -30 -35 -30 -40 0 -55 -20 -55 -74 0 -46 22
-66 71 -64 l39 1 0 99 c0 59 -4 98 -10 98 -5 0 -10 -13 -10 -30z"/>
<path d="M18912 11830 c4 -28 2 -30 -28 -30 -56 0 -84 -67 -49 -118 13 -17 24
-21 60 -20 l45 2 0 98 c0 84 -2 98 -16 98 -12 0 -15 -7 -12 -30z"/>
<path d="M10070 11704 c0 -77 3 -94 15 -94 10 0 15 10 15 28 0 26 3 28 29 24
34 -5 61 26 61 71 0 53 -15 67 -70 66 l-50 -2 0 -93z"/>
<path d="M11646 11778 c-46 -65 16 -144 84 -108 27 15 36 74 16 105 -22 33
-78 35 -100 3z"/>
<path d="M18260 11705 c0 -57 4 -95 10 -95 6 0 10 13 10 30 0 27 2 29 30 24
43 -9 60 9 60 65 0 58 -12 71 -67 71 l-43 0 0 -95z"/>
<path d="M9070 11490 c0 -28 -3 -30 -35 -30 -38 0 -55 -20 -55 -67 0 -49 24
-72 75 -71 l45 1 0 98 c0 81 -3 99 -15 99 -10 0 -15 -10 -15 -30z"/>
<path d="M10422 11490 c4 -28 2 -30 -28 -30 -56 0 -84 -67 -49 -118 13 -17 24
-21 60 -20 l45 2 0 98 c0 84 -2 98 -16 98 -12 0 -15 -7 -12 -30z"/>
<path d="M10710 11490 c0 -27 -3 -30 -34 -30 -43 0 -61 -22 -60 -72 2 -51 14
-62 69 -64 l45 -2 0 99 c0 59 -4 99 -10 99 -5 0 -10 -13 -10 -30z"/>
<path d="M12190 11421 l0 -98 45 -1 c51 -1 75 22 75 73 0 47 -20 69 -58 63
-30 -4 -32 -3 -32 29 0 23 -5 33 -15 33 -12 0 -15 -18 -15 -99z"/>
<path d="M13000 11490 c0 -27 -3 -30 -34 -30 -43 0 -61 -22 -60 -72 2 -51 14
-62 69 -64 l45 -2 0 99 c0 59 -4 99 -10 99 -5 0 -10 -13 -10 -30z"/>
<path d="M13930 11421 l0 -98 45 -1 c51 -1 75 22 75 73 0 47 -20 69 -58 63
-30 -4 -32 -3 -32 29 0 23 -5 33 -15 33 -12 0 -15 -18 -15 -99z"/>
<path d="M16082 11490 c4 -28 2 -30 -28 -30 -56 0 -84 -67 -49 -118 13 -17 24
-21 60 -20 l45 2 0 98 c0 84 -2 98 -16 98 -12 0 -15 -7 -12 -30z"/>
<path d="M19040 11490 c0 -27 -3 -30 -34 -30 -43 0 -61 -22 -60 -72 2 -51 14
-62 69 -64 l45 -2 0 99 c0 59 -4 99 -10 99 -5 0 -10 -13 -10 -30z"/>
<path d="M16973 11498 c2 -7 12 -50 22 -95 11 -52 23 -83 31 -83 11 0 44 89
44 119 0 6 5 11 10 11 6 0 10 -5 10 -11 0 -30 33 -120 43 -116 6 2 19 35 29
73 9 38 20 79 23 92 4 15 1 22 -9 22 -9 0 -18 -22 -27 -65 -7 -36 -16 -65 -21
-65 -4 0 -8 6 -8 13 0 27 -31 117 -40 117 -5 0 -17 -26 -26 -57 -9 -32 -20
-62 -24 -66 -4 -5 -13 21 -20 57 -9 46 -17 66 -27 66 -8 0 -13 -6 -10 -12z"/>
<path d="M9761 11446 c-17 -20 -16 -92 0 -112 9 -11 23 -14 47 -10 36 5 40 -9
9 -28 -12 -8 -22 -8 -36 1 -23 14 -35 5 -20 -14 14 -16 53 -17 80 -3 16 9 19
22 19 94 l0 83 -44 1 c-27 1 -48 -3 -55 -12z"/>
<path d="M9350 11150 c0 -28 -3 -30 -35 -30 -38 0 -55 -20 -55 -67 0 -49 24
-72 75 -71 l45 1 0 98 c0 81 -3 99 -15 99 -10 0 -15 -10 -15 -30z"/>
<path d="M11160 11150 c0 -28 -3 -30 -35 -30 -40 0 -55 -20 -55 -74 0 -46 22
-66 71 -64 l39 1 0 99 c0 59 -4 98 -10 98 -5 0 -10 -13 -10 -30z"/>
<path d="M15700 11082 l0 -98 45 -2 c36 -1 47 3 60 20 35 51 7 118 -51 118
-31 0 -34 2 -34 30 0 17 -4 30 -10 30 -6 0 -10 -39 -10 -98z"/>
<path d="M16530 11150 c0 -28 -3 -30 -35 -30 -38 0 -55 -20 -55 -67 0 -49 24
-72 75 -71 l45 1 0 98 c0 81 -3 99 -15 99 -10 0 -15 -10 -15 -30z"/>
<path d="M19880 11150 c0 -27 -3 -30 -34 -30 -43 0 -61 -22 -60 -72 2 -51 14
-62 69 -64 l45 -2 0 99 c0 59 -4 99 -10 99 -5 0 -10 -13 -10 -30z"/>
<path d="M8700 11025 c0 -57 4 -95 10 -95 6 0 10 13 10 30 0 27 2 29 30 24 43
-9 60 9 60 65 0 58 -12 71 -67 71 l-43 0 0 -95z"/>
<path d="M9626 11098 c-35 -50 -6 -123 45 -116 20 3 29 0 29 -9 0 -20 -30 -28
-51 -15 -13 8 -20 9 -25 1 -17 -28 64 -40 90 -13 12 11 16 36 16 95 l0 79 -44
0 c-35 0 -48 -5 -60 -22z"/>
<path d="M10100 11024 c0 -77 3 -94 15 -94 10 0 15 10 15 28 0 26 3 28 28 24
38 -5 62 20 62 64 0 60 -14 74 -70 73 l-50 -2 0 -93z"/>
<path d="M10250 11025 c0 -57 4 -95 10 -95 6 0 10 13 10 29 0 28 2 29 34 24
27 -4 36 -1 50 18 20 30 21 68 0 97 -12 17 -25 22 -60 22 l-44 0 0 -95z"/>
<path d="M10406 11098 c-46 -65 16 -144 84 -108 27 15 36 74 16 105 -22 33
-78 35 -100 3z"/>
<path d="M15070 11024 c0 -77 3 -94 15 -94 10 0 15 10 15 28 0 26 3 28 29 24
34 -5 61 26 61 71 0 53 -15 67 -70 66 l-50 -2 0 -93z"/>
<path d="M17150 10810 c0 -27 -3 -30 -34 -30 -43 0 -61 -22 -60 -72 2 -51 14
-62 69 -64 l45 -2 0 99 c0 59 -4 99 -10 99 -5 0 -10 -13 -10 -30z"/>
<path d="M19310 10810 c0 -28 -3 -30 -35 -30 -38 0 -55 -20 -55 -67 0 -49 24
-72 75 -71 l45 1 0 98 c0 81 -3 99 -15 99 -10 0 -15 -10 -15 -30z"/>
<path d="M8728 10819 c-42 -24 -41 -146 2 -169 30 -16 68 -12 90 10 15 15 20
33 20 75 0 42 -5 60 -20 75 -21 21 -64 26 -92 9z"/>
<path d="M8880 10735 c0 -78 3 -95 15 -95 11 0 15 11 15 40 0 32 4 40 18 40
11 0 27 -16 41 -40 12 -22 29 -40 37 -40 12 0 11 8 -7 40 -21 37 -21 41 -6 58
41 45 4 92 -70 92 l-43 0 0 -95z"/>
<path d="M9040 10735 l0 -95 39 0 c61 0 94 34 94 95 0 61 -33 95 -94 95 l-39
0 0 -95z"/>
<path d="M9558 10819 c-42 -24 -41 -146 2 -169 30 -16 68 -12 90 10 15 15 20
33 20 75 0 42 -5 60 -20 75 -21 21 -64 26 -92 9z"/>
<path d="M10322 10738 c2 -62 7 -93 16 -96 8 -2 12 9 12 37 0 57 31 57 60 1
11 -22 27 -40 35 -40 13 0 12 7 -5 40 -19 37 -19 42 -5 56 22 22 19 60 -7 78
-12 9 -42 16 -66 16 l-43 0 3 -92z"/>
<path d="M11470 10734 l0 -97 47 6 c60 6 83 33 83 94 0 59 -32 93 -90 93 l-40
0 0 -96z"/>
<path d="M12930 10685 c0 -57 4 -95 10 -95 6 0 10 13 10 30 0 27 2 29 30 24
43 -9 60 9 60 65 0 58 -12 71 -67 71 l-43 0 0 -95z"/>
<path d="M15906 10758 c-46 -65 16 -144 84 -108 27 15 36 74 16 105 -22 33
-78 35 -100 3z"/>
<path d="M9150 10470 c0 -27 -3 -30 -34 -30 -43 0 -61 -22 -60 -72 2 -51 14
-62 69 -64 l45 -2 0 99 c0 59 -4 99 -10 99 -5 0 -10 -13 -10 -30z"/>
<path d="M11440 10470 c0 -28 -3 -30 -35 -30 -40 0 -55 -20 -55 -74 0 -46 22
-66 71 -64 l39 1 0 99 c0 59 -4 98 -10 98 -5 0 -10 -13 -10 -30z"/>
<path d="M12842 10470 c4 -28 2 -30 -28 -30 -56 0 -84 -67 -49 -118 13 -17 24
-21 60 -20 l45 2 0 98 c0 84 -2 98 -16 98 -12 0 -15 -7 -12 -30z"/>
<path d="M17860 10470 c0 -28 -3 -30 -35 -30 -38 0 -55 -20 -55 -67 0 -49 24
-72 75 -71 l45 1 0 98 c0 81 -3 99 -15 99 -10 0 -15 -10 -15 -30z"/>
<path d="M13160 10345 c0 -57 4 -95 10 -95 6 0 10 13 10 30 0 27 2 29 30 24
43 -9 60 9 60 65 0 58 -12 71 -67 71 l-43 0 0 -95z"/>
<path d="M14326 10418 c-46 -65 16 -144 84 -108 27 15 36 74 16 105 -22 33
-78 35 -100 3z"/>
<path d="M14860 10345 c0 -57 4 -95 10 -95 6 0 10 13 10 30 0 27 2 29 30 24
43 -9 60 9 60 65 0 58 -12 71 -67 71 l-43 0 0 -95z"/>
<path d="M15856 10418 c-35 -50 -6 -123 45 -116 20 3 29 0 29 -9 0 -20 -30
-28 -51 -15 -13 8 -20 9 -25 1 -17 -28 64 -40 90 -13 12 11 16 36 16 95 l0 79
-44 0 c-35 0 -48 -5 -60 -22z"/>
<path d="M17996 10418 c-46 -65 16 -144 84 -108 27 15 36 74 16 105 -22 33
-78 35 -100 3z"/>
<path d="M18806 10418 c-46 -65 16 -144 84 -108 27 15 36 74 16 105 -22 33
-78 35 -100 3z"/>
<path d="M9092 10130 c4 -28 2 -30 -28 -30 -56 0 -84 -67 -49 -118 13 -17 24
-21 60 -20 l45 2 0 98 c0 84 -2 98 -16 98 -12 0 -15 -7 -12 -30z"/>
<path d="M11370 10005 c0 -57 4 -95 10 -95 6 0 10 13 10 30 0 27 2 29 30 24
43 -9 60 9 60 65 0 58 -12 71 -67 71 l-43 0 0 -95z"/>
<path d="M9954 9547 c-3 -8 -4 -52 -2 -98 l3 -84 42 -3 c52 -3 73 16 73 67 0
52 -19 75 -58 69 -30 -4 -32 -3 -32 29 0 33 -16 45 -26 20z"/>
<path d="M13342 9530 c4 -28 2 -30 -28 -30 -56 0 -84 -67 -49 -118 13 -17 24
-21 60 -20 l45 2 0 98 c0 84 -2 98 -16 98 -12 0 -15 -7 -12 -30z"/>
<path d="M8728 9539 c-42 -24 -41 -146 2 -169 30 -16 68 -12 90 10 15 15 20
33 20 75 0 42 -5 60 -20 75 -21 21 -64 26 -92 9z"/>
<path d="M13966 9478 c-46 -65 16 -144 84 -108 27 15 36 74 16 105 -22 33 -78
35 -100 3z"/>
<path d="M15486 9478 c-46 -65 16 -144 84 -108 27 15 36 74 16 105 -22 33 -78
35 -100 3z"/>
<path d="M16060 9481 c-15 -30 -12 -88 7 -106 10 -11 27 -15 45 -13 31 5 33
-8 5 -26 -12 -8 -22 -8 -36 1 -23 14 -35 5 -20 -14 14 -16 71 -17 87 -1 7 7
12 43 12 93 l0 82 -45 1 c-35 2 -46 -2 -55 -17z"/>
<path d="M12512 9190 c4 -28 2 -30 -28 -30 -56 0 -84 -67 -49 -118 13 -17 24
-21 60 -20 l45 2 0 98 c0 84 -2 98 -16 98 -12 0 -15 -7 -12 -30z"/>
<path d="M15520 9115 c0 -57 4 -95 10 -95 6 0 10 18 10 41 0 36 2 40 23 37 13
-2 30 -17 42 -40 11 -21 26 -38 33 -38 17 0 15 7 -8 45 -18 29 -18 34 -5 45 8
7 15 27 15 46 0 40 -21 54 -79 54 l-41 0 0 -95z"/>
<path d="M8706 9138 c-46 -65 16 -144 84 -108 27 15 36 74 16 105 -22 33 -78
35 -100 3z"/>
<path d="M11350 9065 c0 -57 4 -95 10 -95 6 0 10 13 10 29 0 28 2 29 34 24 27
-4 36 -1 50 18 20 30 21 68 0 97 -12 17 -25 22 -60 22 l-44 0 0 -95z"/>
<path d="M14200 9065 c0 -57 4 -95 10 -95 6 0 10 13 10 29 0 28 2 29 34 24 27
-4 36 -1 50 18 20 30 21 68 0 97 -12 17 -25 22 -60 22 l-44 0 0 -95z"/>
<path d="M18050 9140 c-15 -28 -12 -72 6 -99 13 -17 24 -22 46 -19 22 4 28 1
26 -11 -3 -12 -14 -15 -41 -14 -38 2 -50 -10 -21 -21 64 -25 94 10 94 110 l0
71 -50 2 c-39 0 -52 -3 -60 -19z"/>
<path d="M18976 9138 c-35 -50 -6 -123 45 -116 20 3 29 0 29 -9 0 -20 -30 -28
-51 -15 -13 8 -20 9 -25 1 -17 -28 64 -40 90 -13 12 11 16 36 16 95 l0 79 -44
0 c-35 0 -48 -5 -60 -22z"/>
<path d="M10094 8867 c-3 -8 -4 -52 -2 -98 l3 -84 42 -3 c52 -3 73 16 73 67 0
52 -19 75 -58 69 -30 -4 -32 -3 -32 29 0 33 -16 45 -26 20z"/>
<path d="M11112 8850 c4 -28 2 -30 -28 -30 -56 0 -84 -67 -49 -118 13 -17 24
-21 60 -20 l45 2 0 98 c0 84 -2 98 -16 98 -12 0 -15 -7 -12 -30z"/>
<path d="M12470 8850 c0 -28 -3 -30 -35 -30 -38 0 -55 -20 -55 -67 0 -49 24
-72 75 -71 l45 1 0 98 c0 81 -3 99 -15 99 -10 0 -15 -10 -15 -30z"/>
<path d="M14000 8850 c0 -27 -3 -30 -34 -30 -43 0 -61 -22 -60 -72 2 -51 14
-62 69 -64 l45 -2 0 99 c0 59 -4 99 -10 99 -5 0 -10 -13 -10 -30z"/>
<path d="M13140 8724 c0 -77 3 -94 15 -94 10 0 15 10 15 28 0 26 3 28 29 24
34 -5 61 26 61 71 0 53 -15 67 -70 66 l-50 -2 0 -93z"/>
<path d="M13500 8800 c-15 -28 -12 -72 6 -99 13 -17 24 -22 46 -19 22 4 28 1
26 -11 -3 -12 -14 -15 -41 -14 -38 2 -50 -10 -21 -21 64 -25 94 10 94 110 l0
71 -50 2 c-39 0 -52 -3 -60 -19z"/>
<path d="M15656 8798 c-46 -65 16 -144 84 -108 27 15 36 74 16 105 -22 33 -78
35 -100 3z"/>
<path d="M9950 8510 c0 -28 -3 -30 -35 -30 -40 0 -55 -20 -55 -74 0 -46 22
-66 71 -64 l39 1 0 99 c0 59 -4 98 -10 98 -5 0 -10 -13 -10 -30z"/>
<path d="M11280 8440 c0 -82 3 -100 15 -100 10 0 15 10 15 30 0 38 7 38 39 0
14 -17 37 -31 50 -33 21 -2 27 7 56 83 36 90 40 110 27 110 -5 0 -24 -40 -43
-90 -18 -49 -36 -90 -39 -90 -4 0 -19 17 -33 37 l-27 37 27 28 c22 23 24 28 9
28 -9 0 -28 -12 -41 -27 l-24 -28 -1 58 c0 44 -3 57 -15 57 -12 0 -15 -18 -15
-100z"/>
<path d="M17960 8442 l0 -98 45 -2 c36 -1 47 3 60 20 35 51 7 118 -51 118 -31
0 -34 2 -34 30 0 17 -4 30 -10 30 -6 0 -10 -39 -10 -98z"/>
<path d="M14560 8508 c-15 -16 -20 -35 -20 -73 0 -38 5 -57 20 -73 26 -27 70
-28 101 -3 20 16 24 28 24 76 0 48 -4 60 -24 76 -31 25 -75 24 -101 -3z"/>
<path d="M14720 8435 c0 -78 3 -95 15 -95 11 0 15 11 15 40 0 32 4 40 18 40
11 0 27 -16 41 -40 12 -22 29 -40 37 -40 12 0 11 8 -7 40 -21 37 -21 41 -6 58
41 45 4 92 -70 92 l-43 0 0 -95z"/>
<path d="M14880 8435 l0 -95 39 0 c61 0 94 34 94 95 0 61 -33 95 -94 95 l-39
0 0 -95z"/>
<path d="M15340 8527 c0 -3 9 -46 21 -96 13 -56 26 -91 33 -91 7 0 21 29 31
65 9 36 20 63 24 60 4 -2 14 -29 21 -60 13 -53 25 -73 37 -62 2 3 15 46 28 96
18 71 20 91 10 91 -8 0 -18 -23 -26 -57 -7 -32 -15 -62 -19 -66 -4 -4 -15 22
-25 58 -10 37 -22 64 -28 62 -6 -2 -20 -32 -31 -68 -20 -67 -22 -66 -40 15 -6
27 -17 51 -24 54 -6 2 -12 1 -12 -1z"/>
<path d="M9100 8385 c0 -52 4 -95 9 -95 5 0 11 12 13 28 3 24 7 27 34 24 55
-6 84 65 48 116 -12 17 -25 22 -60 22 l-44 0 0 -95z"/>
<path d="M9636 8458 c-46 -65 16 -144 84 -108 27 15 36 74 16 105 -22 33 -78
35 -100 3z"/>
<path d="M12686 8458 c-46 -65 16 -144 84 -108 27 15 36 74 16 105 -22 33 -78
35 -100 3z"/>
<path d="M13700 8384 c0 -77 3 -94 15 -94 10 0 15 10 15 28 0 26 3 28 28 24
38 -5 62 20 62 64 0 60 -14 74 -70 73 l-50 -2 0 -93z"/>
<path d="M16470 8384 c0 -77 3 -94 15 -94 10 0 15 10 15 28 0 26 3 28 29 24
34 -5 61 26 61 71 0 53 -15 67 -70 66 l-50 -2 0 -93z"/>
<path d="M17130 8460 c-15 -28 -12 -72 6 -99 13 -17 24 -22 46 -19 22 4 28 1
26 -11 -3 -12 -14 -15 -41 -14 -38 2 -50 -10 -21 -21 64 -25 94 10 94 110 l0
71 -50 2 c-39 0 -52 -3 -60 -19z"/>
<path d="M17330 8384 c0 -77 3 -94 15 -94 10 0 15 10 15 28 0 26 3 28 28 24
38 -5 62 20 62 64 0 60 -14 74 -70 73 l-50 -2 0 -93z"/>
<path d="M19036 8458 c-46 -65 16 -144 84 -108 27 15 36 74 16 105 -22 33 -78
35 -100 3z"/>
<path d="M9150 8310 c0 -7 680 -10 2020 -10 1340 0 2020 3 2020 10 0 7 -680
10 -2020 10 -1340 0 -2020 -3 -2020 -10z"/>
<path d="M12420 8170 c0 -27 -3 -30 -34 -30 -43 0 -61 -22 -60 -72 2 -51 14
-62 69 -64 l45 -2 0 99 c0 59 -4 99 -10 99 -5 0 -10 -13 -10 -30z"/>
<path d="M14310 8170 c0 -27 -3 -30 -34 -30 -43 0 -61 -22 -60 -72 2 -51 14
-62 69 -64 l45 -2 0 99 c0 59 -4 99 -10 99 -5 0 -10 -13 -10 -30z"/>
<path d="M9476 8118 c-35 -50 -6 -123 45 -116 20 3 29 0 29 -9 0 -20 -30 -28
-51 -15 -13 8 -20 9 -25 1 -17 -28 64 -40 90 -13 12 11 16 36 16 95 l0 79 -44
0 c-35 0 -48 -5 -60 -22z"/>
<path d="M11746 8118 c-46 -65 16 -144 84 -108 27 15 36 74 16 105 -22 33 -78
35 -100 3z"/>
<path d="M11950 8045 c0 -57 4 -95 10 -95 6 0 10 13 10 29 0 28 2 29 34 24 27
-4 36 -1 50 18 20 30 21 68 0 97 -12 17 -25 22 -60 22 l-44 0 0 -95z"/>
<path d="M15966 8118 c-46 -65 16 -144 84 -108 27 15 36 74 16 105 -22 33 -78
35 -100 3z"/>
<path d="M17540 8044 c0 -77 3 -94 15 -94 10 0 15 10 15 28 0 26 3 28 29 24
34 -5 61 26 61 71 0 53 -15 67 -70 66 l-50 -2 0 -93z"/>
<path d="M9070 7830 c0 -28 -3 -30 -35 -30 -38 0 -55 -20 -55 -67 0 -49 24
-72 75 -71 l45 1 0 98 c0 81 -3 99 -15 99 -10 0 -15 -10 -15 -30z"/>
<path d="M9950 7830 c0 -27 -3 -30 -34 -30 -43 0 -61 -22 -60 -72 2 -51 14
-62 69 -64 l45 -2 0 99 c0 59 -4 99 -10 99 -5 0 -10 -13 -10 -30z"/>
<path d="M11460 7780 c-15 -28 -12 -72 6 -99 13 -17 24 -22 46 -19 22 4 28 1
26 -11 -3 -12 -14 -15 -41 -14 -38 2 -50 -10 -21 -21 64 -25 94 10 94 110 l0
71 -50 2 c-39 0 -52 -3 -60 -19z"/>
<path d="M11756 7778 c-46 -65 16 -144 84 -108 27 15 36 74 16 105 -22 33 -78
35 -100 3z"/>
<path d="M11906 7778 c-46 -65 16 -144 84 -108 27 15 36 74 16 105 -22 33 -78
35 -100 3z"/>
<path d="M12436 7778 c-46 -65 16 -144 84 -108 27 15 36 74 16 105 -22 33 -78
35 -100 3z"/>
<path d="M13706 7778 c-35 -50 -6 -123 45 -116 20 3 29 0 29 -9 0 -20 -30 -28
-51 -15 -13 8 -20 9 -25 1 -17 -28 64 -40 90 -13 12 11 16 36 16 95 l0 79 -44
0 c-35 0 -48 -5 -60 -22z"/>
<path d="M10684 7247 c-3 -8 -4 -52 -2 -98 l3 -84 42 -3 c52 -3 73 16 73 67 0
52 -19 75 -58 69 -30 -4 -32 -3 -32 29 0 33 -16 45 -26 20z"/>
<path d="M11622 7230 c4 -28 2 -30 -28 -30 -56 0 -84 -67 -49 -118 13 -17 24
-21 60 -20 l45 2 0 98 c0 84 -2 98 -16 98 -12 0 -15 -7 -12 -30z"/>
<path d="M12860 7162 l0 -98 42 -1 c56 -3 68 10 68 67 0 56 -16 74 -60 68 -28
-4 -30 -3 -30 29 0 18 -4 33 -10 33 -6 0 -10 -39 -10 -98z"/>
<path d="M8700 7155 c0 -78 3 -95 15 -95 11 0 15 11 15 40 0 39 1 40 34 40 56
0 66 8 66 51 0 46 -18 59 -84 59 l-46 0 0 -95z"/>
<path d="M11020 7155 c0 -80 2 -95 16 -95 13 0 15 11 12 64 -1 35 0 62 3 60 4
-2 17 -31 29 -64 13 -33 28 -59 34 -57 6 2 23 33 38 68 l27 64 1 -67 c0 -54 3
-68 15 -68 12 0 15 17 15 95 0 86 -2 95 -18 95 -14 0 -26 -19 -46 -70 -15 -39
-31 -68 -34 -66 -4 2 -18 34 -32 70 -17 47 -29 66 -42 66 -16 0 -18 -10 -18
-95z"/>
<path d="M12050 7155 l0 -95 39 0 c61 0 94 34 94 95 0 61 -33 95 -94 95 l-39
0 0 -95z"/>
<path d="M10050 7104 c0 -77 3 -94 15 -94 10 0 15 10 15 28 0 26 3 28 29 24
34 -5 61 26 61 71 0 53 -15 67 -70 66 l-50 -2 0 -93z"/>
<path d="M9770 6471 c0 -28 -3 -31 -29 -31 -16 0 -37 -7 -45 -16 -21 -20 -20
-73 0 -102 13 -19 23 -22 57 -19 l42 4 0 93 c0 66 -4 95 -12 98 -9 2 -13 -7
-13 -27z"/>
<path d="M8812 6398 c2 -62 7 -93 16 -96 8 -2 12 9 12 37 0 57 31 57 60 1 11
-22 27 -40 35 -40 13 0 12 7 -5 40 -19 37 -19 42 -5 56 22 22 19 60 -7 78 -12
9 -42 16 -66 16 l-43 0 3 -92z"/>
<path d="M9116 6418 c-35 -50 -6 -123 45 -116 26 4 29 2 29 -24 0 -18 5 -28
15 -28 12 0 15 17 15 95 l0 95 -44 0 c-35 0 -48 -5 -60 -22z"/>
<path d="M12470 5230 c0 -143 1 -150 20 -150 18 0 20 7 20 80 0 73 2 81 24 95
19 13 29 14 45 5 19 -9 21 -20 21 -95 0 -78 2 -85 20 -85 19 0 20 7 20 90 0
77 -3 93 -20 110 -22 22 -60 26 -91 10 -18 -10 -19 -7 -19 40 0 43 -3 50 -20
50 -19 0 -20 -7 -20 -150z"/>
<path d="M8762 5360 c-28 -12 -61 -83 -62 -132 -1 -125 110 -193 192 -119 32
29 33 31 33 116 0 85 -1 87 -33 116 -34 31 -83 38 -130 19z m103 -45 c22 -21
25 -33 25 -90 0 -57 -3 -69 -25 -90 -30 -31 -56 -32 -92 -1 -25 22 -28 30 -28
91 0 61 3 69 28 91 36 31 62 30 92 -1z"/>
<path d="M8990 5225 c0 -138 1 -145 20 -145 18 0 20 7 20 60 0 60 0 60 29 60
26 0 34 -8 63 -60 21 -38 39 -60 50 -60 25 0 23 13 -11 72 l-30 51 25 19 c24
20 32 65 18 103 -11 27 -60 45 -124 45 l-60 0 0 -145z"/>
<path d="M9240 5225 l0 -145 49 0 c106 0 151 43 151 145 0 102 -45 145 -151
145 l-49 0 0 -145z m138 80 c17 -20 22 -38 22 -80 0 -71 -28 -107 -86 -109
l-39 -1 -3 99 c-1 55 0 106 3 114 9 23 76 8 103 -23z"/>
<path d="M9522 5233 c-29 -76 -52 -141 -52 -145 0 -5 8 -8 18 -8 13 0 23 13
32 40 l13 40 57 0 57 0 16 -40 c11 -29 21 -40 36 -40 21 0 21 0 2 48 -10 26
-35 91 -56 145 -51 134 -58 132 -123 -40z"/>
<path d="M9830 5360 c0 -7 64 -183 95 -262 4 -10 15 -18 24 -18 12 0 29 34 65
133 27 72 51 138 54 145 3 10 -2 13 -18 10 -19 -2 -29 -20 -59 -105 -20 -56
-39 -104 -43 -108 -3 -3 -23 44 -43 104 -30 90 -40 111 -56 111 -10 0 -19 -4
-19 -10z"/>
<path d="M12273 5358 c-12 -6 -27 -23 -33 -38 -20 -47 4 -79 80 -109 52 -21
66 -31 68 -51 8 -53 -64 -67 -108 -20 -34 36 -50 38 -50 7 0 -37 34 -60 93
-65 68 -5 107 22 107 74 0 42 -26 69 -80 84 -40 11 -80 40 -80 59 0 15 42 41
67 41 13 0 31 -12 45 -30 25 -35 48 -39 48 -10 0 37 -44 70 -92 69 -24 0 -53
-5 -65 -11z"/>
<path d="M10222 5284 c-18 -12 -22 -24 -20 -52 3 -34 6 -38 50 -52 60 -19 76
-34 58 -55 -18 -21 -57 -19 -72 5 -15 23 -48 27 -48 5 0 -30 38 -55 85 -55 32
0 51 6 65 20 40 40 19 84 -50 104 -46 14 -64 41 -38 57 21 14 37 11 55 -11 22
-25 43 -26 43 -1 0 45 -83 67 -128 35z"/>
<path d="M10416 5292 c-17 -4 -18 -12 -14 -94 5 -110 12 -118 105 -116 l63 2
0 107 c0 102 -1 107 -20 102 -17 -4 -20 -15 -22 -86 -3 -79 -4 -82 -31 -91
-41 -15 -51 3 -57 97 -4 74 -7 82 -24 79z"/>
<path d="M10663 5290 c-12 -5 -26 -18 -32 -28 -9 -16 -7 -21 9 -25 11 -3 20
-1 20 4 0 5 11 14 24 20 29 14 66 -3 66 -30 0 -15 -10 -19 -52 -23 -57 -6 -78
-24 -78 -68 0 -15 8 -34 18 -43 22 -20 83 -22 100 -5 9 9 12 9 12 0 0 -7 9
-12 20 -12 18 0 20 7 20 85 0 78 -2 88 -25 110 -25 26 -62 31 -102 15z"/>
<path d="M11062 5284 c-18 -12 -22 -24 -20 -52 3 -34 6 -38 50 -52 60 -19 76
-34 58 -55 -18 -21 -57 -19 -72 5 -15 23 -48 27 -48 5 0 -30 38 -55 85 -55 32
0 51 6 65 20 40 40 19 84 -50 104 -46 14 -64 41 -38 57 21 14 37 11 55 -11 22
-25 43 -26 43 -1 0 45 -83 67 -128 35z"/>
<path d="M11266 5279 c-14 -11 -26 -24 -26 -29 0 -17 35 -15 52 2 22 22 42 23
63 2 24 -25 13 -38 -37 -44 -58 -7 -78 -24 -78 -65 0 -54 58 -83 111 -55 13 7
19 7 19 0 0 -5 8 -10 18 -10 16 0 18 9 14 93 -3 77 -7 95 -24 110 -27 23 -79
22 -112 -4z"/>
<path d="M11709 5271 c-24 -25 -29 -38 -29 -79 0 -70 35 -112 92 -112 30 0 46
7 69 29 25 25 29 37 29 81 0 44 -4 56 -29 81 -22 21 -39 29 -66 29 -27 0 -44
-8 -66 -29z"/>
<path d="M11920 5190 c0 -91 3 -110 15 -110 12 0 15 15 15 75 0 62 4 79 20 95
49 49 80 14 80 -91 0 -64 3 -79 15 -79 12 0 15 17 15 93 0 78 -3 97 -18 110
-21 20 -54 22 -84 6 -11 -6 -23 -7 -27 -3 -3 5 -12 10 -18 12 -10 1 -13 -25
-13 -108z"/>
<path d="M12727 5280 c-51 -40 -54 -144 -5 -182 33 -25 91 -23 123 5 52 44 42
152 -16 182 -39 21 -72 19 -102 -5z"/>
<path d="M12919 5293 c-13 -3 -12 -18 15 -108 38 -132 53 -138 85 -30 12 41
23 75 25 75 3 0 14 -34 27 -75 32 -108 47 -103 86 29 28 98 29 105 12 109 -19
5 -23 -4 -45 -98 -12 -52 -16 -49 -40 27 -31 98 -48 99 -76 2 -12 -40 -25 -71
-28 -69 -4 2 -12 30 -19 62 -16 70 -21 80 -42 76z"/>
<path d="M13262 5290 c-33 -14 -55 -74 -47 -126 7 -52 42 -84 90 -84 35 0 85
33 85 56 0 21 -33 17 -48 -6 -16 -27 -57 -26 -76 2 -23 32 -20 94 4 118 27 27
46 25 74 -5 28 -30 46 -32 46 -6 0 44 -72 73 -128 51z"/>
<path d="M13456 5279 c-14 -11 -26 -24 -26 -29 0 -17 35 -15 52 2 22 22 42 23
63 2 24 -25 13 -38 -37 -44 -58 -7 -78 -24 -78 -65 0 -54 58 -83 111 -55 13 7
19 7 19 0 0 -5 8 -10 18 -10 16 0 18 9 14 93 -3 77 -7 95 -24 110 -27 23 -79
22 -112 -4z"/>
<path d="M13672 5284 c-30 -21 -30 -69 1 -88 12 -7 39 -19 60 -26 25 -8 37
-18 37 -30 0 -34 -63 -42 -82 -10 -15 23 -48 27 -48 6 0 -25 50 -56 91 -56 46
0 79 27 79 65 0 27 -24 46 -82 65 -42 13 -52 44 -18 55 21 7 60 -10 60 -25 0
-6 9 -10 20 -10 28 0 25 25 -6 49 -32 25 -81 27 -112 5z"/>
<path d="M13879 5271 c-25 -26 -29 -37 -29 -86 0 -46 4 -60 25 -80 30 -31 92
-34 125 -7 30 25 18 49 -13 27 -12 -8 -31 -15 -43 -15 -24 0 -68 46 -58 61 3
5 36 9 74 9 l69 0 -6 38 c-11 78 -89 107 -144 53z"/>
<path d="M8680 4155 l0 -585 5720 0 5720 0 0 585 0 585 -5720 0 -5720 0 0
-585z m10684 432 c172 -80 252 -216 244 -415 -5 -114 -28 -183 -85 -253 -112
-136 -265 -185 -440 -141 -329 83 -441 456 -211 707 54 59 94 87 166 116 38
16 68 19 157 16 95 -2 118 -6 169 -30z m-9734 13 c52 -6 121 -15 153 -22 l59
-11 -4 -196 c-5 -220 -15 -265 -84 -355 -39 -51 -37 -53 29 -30 58 20 72 35
57 64 -9 16 -8 25 1 36 22 27 47 16 70 -31 l23 -45 -29 -30 c-32 -33 -93 -64
-147 -74 -35 -6 -38 -9 -35 -38 2 -30 -2 -34 -57 -61 -54 -27 -69 -30 -152
-29 -82 0 -100 4 -151 29 -54 27 -58 31 -55 61 2 30 0 32 -36 38 -51 8 -130
52 -155 86 -19 25 -19 28 -4 52 10 14 17 32 17 41 0 19 43 20 59 1 9 -11 10
-20 1 -36 -15 -29 -1 -44 57 -64 66 -23 68 -21 29 30 -69 90 -79 135 -84 355
l-4 196 59 12 c131 28 251 34 383 21z m6740 -160 c0 -23 3 -27 23 -23 31 6 44
-13 48 -69 l4 -48 -55 0 -55 0 2 77 c1 48 -1 68 -6 53 l-7 -25 -12 23 c-7 12
-19 22 -27 22 -20 0 -22 -136 -2 -143 6 -3 -8 -6 -33 -6 -35 0 -41 2 -27 10
13 8 17 24 17 74 0 71 -14 84 -43 43 -16 -23 -16 -23 -16 10 l-1 33 95 -2 95
-1 0 -28z m530 -75 c4 -37 9 -51 23 -53 14 -3 17 4 17 37 0 26 -5 41 -12 41
-14 1 20 30 34 30 4 0 8 -24 8 -54 0 -34 5 -56 13 -59 6 -3 -31 -6 -83 -6
l-95 -1 0 53 c0 28 4 55 8 58 5 3 25 6 45 5 37 -1 37 -1 42 -51z m400 42 c0
-8 3 -8 12 1 7 7 25 12 40 12 24 0 28 -4 28 -27 -1 -25 -2 -26 -14 -10 -7 9
-18 17 -25 17 -19 0 -12 -16 14 -30 14 -8 28 -24 31 -37 10 -37 24 -27 24 17
0 25 -5 40 -12 40 -14 1 20 30 34 30 4 0 8 -24 8 -54 0 -34 5 -56 13 -60 6 -3
-9 -4 -34 -4 -25 1 -50 -2 -57 -6 -20 -12 -62 5 -62 25 0 23 18 25 26 4 6 -15
34 -21 34 -7 0 12 -82 72 -91 66 -14 -8 -11 -72 4 -77 6 -3 -6 -5 -28 -5 -22
0 -34 2 -27 5 7 2 12 22 12 44 0 24 -5 39 -12 39 -8 1 -6 6 4 14 22 16 78 19
78 3z m836 2 c4 -6 11 -6 19 1 8 6 24 10 37 8 20 -3 23 -10 26 -50 2 -29 8
-48 18 -52 11 -4 14 4 14 34 0 25 -5 40 -12 40 -8 1 -6 6 5 14 24 19 133 16
129 -3 -4 -21 8 -52 19 -46 5 4 9 19 9 36 0 17 5 29 13 29 20 0 28 -11 19 -24
-5 -6 -19 -39 -31 -73 -25 -68 -42 -88 -67 -79 -20 8 -12 31 9 30 26 -2 30 32
8 74 -15 29 -25 38 -43 37 -18 -1 -24 -8 -26 -35 -2 -20 2 -36 10 -41 8 -6 -1
-9 -27 -9 -22 -1 -57 -3 -77 -5 -44 -5 -65 14 -49 44 6 11 20 23 31 26 20 6
28 35 10 35 -5 0 -10 -7 -10 -15 0 -8 -7 -15 -15 -15 -8 0 -15 4 -15 8 0 5
-10 8 -22 7 -18 -1 -24 -9 -26 -35 -2 -20 2 -36 10 -41 9 -6 3 -9 -17 -9 -30
0 -30 1 -30 53 0 28 4 55 8 58 14 10 66 8 73 -2z m-2646 -353 c7 -43 19 -84
27 -92 13 -12 8 -14 -34 -14 -30 0 -43 3 -35 9 22 14 10 56 -16 59 -31 5 -55
-17 -49 -45 4 -20 0 -23 -28 -23 l-33 0 41 63 c23 35 55 86 71 113 34 58 36
54 56 -70z m2176 89 c-19 -78 -19 -80 -5 -67 17 16 58 16 65 -1 2 -7 -2 -34
-10 -60 -13 -42 -13 -47 0 -36 24 19 28 3 5 -20 -44 -44 -63 -17 -41 58 5 19
7 37 4 40 -9 9 -53 -51 -60 -81 -4 -19 -12 -28 -25 -28 -15 0 -19 5 -15 18 31
96 46 176 35 183 -8 5 -6 8 7 12 41 10 46 8 40 -18z m324 17 c0 -4 -12 -48
-26 -96 -14 -49 -23 -90 -21 -92 6 -6 27 21 46 58 21 42 66 67 109 61 28 -5
32 -8 26 -27 -19 -59 -22 -84 -8 -79 21 8 17 -11 -7 -33 -16 -14 -24 -16 -38
-7 -11 7 -23 8 -32 2 -21 -13 -36 -11 -54 7 -15 15 -17 15 -36 -2 -16 -14 -24
-16 -38 -7 -13 8 -22 8 -29 1 -6 -6 -22 -8 -36 -4 -21 5 -26 12 -26 37 0 44
27 89 63 104 18 7 35 11 39 9 5 -3 13 7 19 23 7 20 7 29 -2 32 -8 2 -7 6 2 12
18 11 49 12 49 1z m-3103 -24 c63 -59 -15 -198 -112 -198 -51 0 -75 24 -75 76
0 53 19 94 57 123 38 28 100 28 130 -1z m201 10 c21 -21 14 -65 -14 -86 -25
-18 -26 -21 -14 -56 12 -39 34 -56 51 -39 5 5 20 45 32 90 22 72 22 81 8 91
-12 8 1 11 57 11 65 1 76 -2 97 -24 45 -44 26 -139 -35 -170 -20 -10 -59 -15
-130 -15 l-100 0 -23 52 -23 51 -14 -42 c-12 -37 -12 -44 1 -52 9 -6 -2 -9
-35 -9 -42 0 -47 2 -34 13 23 18 61 167 47 184 -9 10 1 13 53 13 36 0 69 -5
76 -12z m832 -15 c54 -68 -21 -193 -115 -193 -68 0 -98 56 -69 129 35 87 137
123 184 64z m-5738 0 c23 -21 24 -89 1 -115 -39 -43 -107 -7 -107 57 0 63 62
98 106 58z m7138 -52 c0 -3 -7 -30 -14 -59 -13 -46 -13 -52 0 -41 20 16 18 -5
-2 -25 -17 -17 -44 -21 -44 -7 0 5 -13 4 -29 -2 -37 -14 -61 3 -61 43 0 31 42
88 73 99 21 8 77 2 77 -8z m1046 -25 c-3 -17 -8 -41 -12 -54 -5 -18 -3 -21 10
-16 22 9 20 -9 -5 -32 -15 -14 -24 -16 -37 -8 -11 8 -25 7 -45 0 -24 -9 -31
-8 -43 8 -20 27 -18 48 9 87 28 42 57 57 98 51 29 -4 31 -7 25 -36z m-7871
-116 c5 -8 11 -7 20 0 20 17 69 8 73 -12 2 -11 -3 -18 -12 -18 -9 0 -16 7 -16
15 0 20 -19 19 -27 -1 -3 -9 0 -20 8 -26 11 -7 11 -11 2 -15 -8 -2 -13 -22
-13 -44 0 -33 3 -39 21 -39 20 0 21 4 17 50 -4 43 -3 50 11 48 11 -2 18 -18
21 -56 l6 -52 -56 0 -55 0 1 65 c1 43 -2 63 -10 62 -6 -1 -10 4 -8 11 1 8 -2
11 -8 7 -14 -9 -13 -32 3 -39 10 -5 10 -7 0 -12 -7 -3 -13 -23 -13 -44 0 -21
6 -41 13 -43 6 -3 -1 -6 -18 -6 l-30 -1 1 65 c1 36 7 72 14 80 14 17 46 20 55
5z"/>
<path d="M19122 4565 c-129 -58 -229 -238 -239 -430 -9 -155 31 -234 146 -292
189 -96 369 18 438 277 21 79 23 218 4 282 -17 58 -70 122 -125 150 -54 28
-176 35 -224 13z m97 -271 c29 -37 27 -65 -14 -180 -39 -111 -42 -132 -19
-141 21 -8 60 31 81 83 18 44 53 62 53 28 0 -31 -64 -137 -95 -155 -42 -26
-62 -24 -96 10 -39 39 -39 95 0 199 40 105 43 119 31 127 -22 14 -49 -8 -76
-60 -29 -55 -64 -75 -64 -37 0 25 56 118 82 136 36 26 93 21 117 -10z"/>
<path d="M9370 4580 c-36 -5 -85 -13 -110 -17 l-45 -9 -3 -171 c-2 -153 0
-179 18 -234 38 -112 110 -193 225 -251 l60 -31 61 32 c117 61 186 137 224
250 18 55 20 81 18 233 l-3 172 -65 13 c-85 16 -298 23 -380 13z m184 -30 c28
-27 33 -46 14 -52 -7 -3 -3 -7 9 -10 18 -5 22 -2 20 15 -1 17 4 23 23 25 14 2
31 8 37 14 15 12 47 2 38 -12 -3 -6 1 -7 9 -4 9 3 16 1 16 -5 0 -6 -11 -11
-24 -11 -29 0 -56 -33 -56 -67 0 -34 -40 -46 -140 -41 -96 4 -118 12 -99 34 6
8 8 14 3 14 -5 0 -17 14 -26 30 -10 18 -25 30 -38 30 -24 0 -26 13 -4 31 12
10 20 10 35 1 10 -7 28 -12 38 -12 26 0 36 -17 21 -35 -14 -17 -5 -18 25 -5
11 5 14 9 8 9 -20 1 -15 21 13 51 31 33 43 33 78 0z m-194 -125 c19 -19 32
-35 29 -35 -2 0 -19 4 -38 10 -33 9 -33 9 -15 -11 10 -11 24 -17 31 -14 7 3
20 8 28 11 11 5 13 -1 8 -30 -5 -34 16 -74 31 -59 3 4 6 1 6 -6 0 -7 4 -10 9
-7 11 7 23 -22 15 -35 -8 -13 -34 -11 -35 4 0 10 -2 10 -6 0 -2 -7 -11 -13
-19 -13 -8 0 -14 -8 -14 -17 0 -10 -3 -28 -6 -39 -5 -20 -2 -21 60 -20 l66 1
0 38 c0 29 -4 37 -18 37 -11 0 -18 7 -18 20 0 18 8 24 29 21 4 0 8 23 9 52 1
43 2 45 5 15 3 -24 9 -38 18 -38 8 0 19 -8 24 -17 6 -10 11 -13 11 -8 0 6 3 5
8 -1 4 -8 15 -8 30 -3 20 8 23 15 21 53 -3 41 1 48 39 86 42 40 62 44 62 14 0
-8 7 -17 15 -20 8 -4 15 -12 15 -20 0 -8 7 -14 16 -14 15 0 14 -3 -2 -27 -11
-19 -13 -24 -3 -16 8 6 19 9 24 5 22 -15 13 -34 -21 -48 -51 -21 -104 -57
-104 -70 0 -14 44 -44 73 -49 27 -6 52 -45 28 -45 -20 0 -41 13 -41 24 0 7
-11 18 -25 24 -33 15 -35 15 -35 -4 0 -9 17 -22 40 -31 38 -15 55 -43 26 -43
-9 0 -12 -7 -9 -20 7 -26 -12 -26 -35 1 -9 11 -31 29 -49 40 -62 39 -191 6
-261 -67 -27 -28 -55 -32 -50 -7 2 9 15 20 29 23 14 4 45 20 69 36 37 25 41
29 23 32 -26 4 -68 -17 -107 -53 -21 -20 -31 -24 -40 -15 -8 8 -6 15 8 25 10
8 22 12 27 10 13 -8 18 10 8 25 -8 13 -12 11 -26 -7 -18 -27 -46 -31 -41 -5 2
9 13 18 25 20 27 4 46 26 41 49 -3 15 -8 13 -37 -15 -29 -27 -61 -42 -61 -28
0 17 15 36 27 36 21 0 73 39 73 55 0 16 -52 55 -73 55 -8 0 -20 7 -27 15 -7 8
-16 13 -20 10 -5 -3 -7 2 -6 11 1 8 8 19 15 24 8 4 10 13 7 19 -6 10 6 15 26
12 4 0 5 6 2 14 -5 13 32 64 47 65 3 0 20 -16 39 -35z m168 -356 c-6 -4 0 -13
13 -23 16 -11 19 -16 9 -17 -10 0 -11 -2 -3 -5 7 -3 9 -13 6 -21 -5 -12 -2
-15 10 -10 9 3 17 4 17 1 0 -3 -13 -10 -29 -15 -19 -7 -31 -19 -34 -35 -5 -29
7 -30 48 -5 34 20 42 54 17 73 -9 7 -17 25 -18 40 l-1 27 27 -22 c31 -25 33
-50 10 -109 -14 -39 -30 -45 -95 -40 -11 1 -29 2 -41 3 -22 2 -37 32 -49 102
-5 29 -3 37 10 37 8 0 15 5 15 10 0 6 12 16 28 23 15 6 31 18 36 26 7 11 11 9
21 -10 9 -16 10 -26 3 -30z"/>
<path d="M14781 4114 c-47 -59 -48 -154 -3 -154 44 0 105 117 82 159 -15 29
-54 27 -79 -5z"/>
<path d="M15812 4115 c-44 -55 -53 -128 -19 -149 39 -25 91 42 92 117 0 49 -2
52 -26 55 -19 2 -33 -4 -47 -23z"/>
<path d="M19180 3215 c0 -78 2 -85 19 -85 17 0 20 8 23 48 l3 47 10 -45 c8
-34 15 -45 30 -45 15 0 22 11 30 45 l10 45 3 -47 c3 -40 6 -48 23 -48 17 0 19
7 19 86 l0 85 -27 -3 c-23 -3 -29 -11 -43 -58 l-17 -55 -13 58 c-12 53 -15 57
-42 57 l-28 0 0 -85z"/>
<path d="M19542 3280 c-30 -28 -31 -101 -2 -130 33 -33 166 -33 189 0 19 28
77 28 84 0 5 -19 37 -29 37 -12 0 4 -14 42 -31 85 -22 54 -36 77 -49 77 -12 0
-26 -22 -47 -77 -18 -45 -36 -78 -44 -78 -8 0 -12 7 -9 15 2 8 4 35 4 59 0 33
-5 48 -23 62 -31 25 -82 24 -109 -1z"/>
<path d="M8813 2643 c-10 -3 -13 -53 -13 -199 l0 -194 1350 0 1350 0 0 188 c0
133 -4 192 -12 200 -9 9 -319 12 -1337 11 -730 0 -1332 -3 -1338 -6z m367
-182 c8 -14 9 -14 10 2 0 9 7 17 15 17 8 0 15 -8 15 -17 1 -16 2 -16 10 -2 10
17 76 24 85 9 4 -6 14 -5 25 3 26 16 54 -1 58 -36 4 -34 -33 -57 -56 -34 -13
14 -17 14 -37 1 -20 -13 -25 -13 -41 3 -12 13 -19 14 -22 5 -6 -18 -32 -14
-33 6 -1 16 -2 16 -6 0 -6 -22 -33 -24 -33 -2 0 13 -4 12 -26 -5 -32 -26 -64
-13 -64 25 0 14 -4 22 -10 19 -5 -3 -10 -17 -10 -31 0 -13 -4 -24 -10 -24 -5
0 -10 17 -10 39 l0 39 65 -1 c49 0 68 -4 75 -16z"/>
<path d="M9030 2143 c-23 -9 -60 -45 -76 -75 -55 -107 78 -229 185 -170 92 50
93 190 2 237 -30 15 -82 19 -111 8z"/>
<path d="M9030 1663 c-23 -9 -60 -45 -76 -75 -55 -107 78 -229 185 -170 65 35
88 114 53 182 -26 54 -105 84 -162 63z m103 -74 c52 -20 55 -23 54 -55 -1 -22
-6 -34 -15 -34 -9 0 -11 7 -7 21 5 16 4 20 -6 13 -26 -16 -93 -22 -126 -10
-19 6 -23 4 -23 -12 0 -11 7 -23 16 -26 25 -9 83 -7 107 5 21 10 21 10 3 -5
-23 -18 -88 -21 -117 -6 -11 6 -19 21 -19 35 0 15 -7 26 -20 30 -31 10 -24 18
33 42 66 27 56 26 120 2z"/>
<path d="M9013 1160 c-120 -73 -74 -250 65 -250 136 0 182 189 61 250 -48 25
-85 25 -126 0z"/>
<path d="M296 744 c-13 -13 -16 -45 -16 -197 l0 -181 38 37 38 37 146 0 c120
0 149 3 162 16 23 23 23 265 0 288 -23 24 -345 24 -368 0z"/>
<path d="M9012 680 c-41 -25 -72 -76 -72 -119 0 -70 66 -131 142 -131 133 1
177 190 57 250 -49 25 -85 25 -127 0z"/>
<path d="M16000 150 c0 -137 9 -184 23 -128 6 21 6 21 233 15 125 -4 987 -7
1916 -7 1494 0 1688 -2 1688 -15 0 -8 9 -15 20 -15 19 0 20 7 20 150 l0 150
-1950 0 -1950 0 0 -150z"/>
<path d="M11661 241 c-1 -47 1 -53 17 -49 13 4 23 -4 35 -26 17 -31 17 -31 -2
-8 -11 12 -26 22 -35 22 -13 0 -16 -14 -16 -90 l0 -90 189 1 190 1 8 42 c4 22
7 47 6 53 0 7 3 10 8 8 4 -3 5 -28 2 -55 l-6 -50 57 0 c38 0 56 4 56 13 0 6 3
22 6 34 5 18 -2 27 -42 53 -26 16 -43 30 -38 30 6 0 19 -7 30 -15 25 -19 33
-19 27 3 -2 11 7 27 24 42 l28 25 -22 -26 c-27 -30 -28 -42 -8 -59 9 -7 14
-14 12 -16 -2 -2 13 -22 33 -44 35 -38 40 -40 94 -40 l58 0 -6 28 c-6 26 -2
29 59 60 64 31 77 45 53 55 -9 4 -9 6 -1 6 17 1 71 -46 78 -69 6 -19 118 -64
129 -52 3 3 6 0 6 -6 0 -5 -6 -13 -12 -15 -7 -3 28 -6 79 -6 64 -1 93 3 96 12
4 9 6 9 6 0 1 -9 52 -12 196 -13 l195 0 -12 25 c-17 37 -53 43 -86 14 l-27
-23 27 28 26 29 -30 39 c-36 44 -44 46 -51 17 -4 -15 -11 -19 -25 -14 -14 4
-25 -1 -36 -17 -9 -12 -16 -18 -16 -12 0 18 36 45 52 39 10 -4 17 1 21 16 8
29 -9 59 -33 59 -10 0 -20 5 -22 12 -2 6 -25 11 -53 11 -33 0 -42 3 -28 8 26
10 35 23 27 43 -5 13 -22 16 -80 16 l-73 0 6 -32 c7 -38 14 -48 20 -30 5 14
33 16 33 2 0 -5 10 -11 23 -11 17 -1 18 -2 4 -6 -10 -3 -24 1 -32 7 -11 9 -15
9 -15 1 0 -6 -9 -11 -20 -11 -13 0 -20 7 -20 20 0 10 -8 24 -17 29 -10 6 -12
11 -5 11 6 0 12 5 12 10 0 16 -527 13 -533 -2 -4 -10 -6 -10 -6 0 -1 8 -22 12
-72 12 -68 0 -70 -1 -65 -22 l6 -23 -11 23 c-10 19 -20 22 -70 22 -52 0 -58
-2 -62 -22 l-4 -23 -2 23 c-1 17 -7 22 -27 22 -23 0 -25 -3 -20 -24 3 -14 2
-27 -3 -30 -5 -3 -9 0 -8 7 1 47 2 47 -106 47 -56 0 -116 -4 -134 -9 -22 -7
-33 -6 -37 2 -2 7 -5 -12 -5 -42z"/>
<path d="M13277 243 c-17 -48 -17 -49 8 -112 l25 -64 -26 -34 -25 -33 231 1
c128 1 227 5 221 9 -7 3 -14 24 -16 46 -4 36 -4 37 4 7 13 -51 32 -63 100 -63
56 0 61 2 61 21 0 28 39 64 87 80 42 14 63 35 56 59 -2 8 9 -13 25 -47 30 -61
61 -89 95 -84 10 1 17 -4 17 -14 0 -13 10 -15 58 -13 l57 3 -2 37 c-1 21 -10
52 -19 70 -17 33 -37 105 -27 94 9 -8 43 -104 56 -158 11 -44 13 -46 32 -32
11 9 31 13 45 10 14 -3 39 0 56 6 37 13 84 3 84 -17 0 -24 97 -21 103 3 4 16
5 16 6 0 1 -16 14 -18 125 -18 110 0 125 2 129 18 4 16 5 16 6 0 1 -16 24 -17
298 -18 261 0 299 2 315 17 10 9 18 11 18 5 0 -6 -6 -13 -12 -15 -7 -3 8 -6
35 -6 38 -1 47 2 47 17 0 35 -13 62 -28 60 -10 -2 -16 7 -18 27 -3 27 -2 28 6
7 13 -31 40 -29 40 4 0 21 -4 25 -17 20 -17 -6 -17 -5 0 8 18 14 14 46 -7 46
-6 0 -3 5 7 11 11 7 17 22 17 49 l0 40 -94 0 c-94 0 -94 0 -105 -27 l-11 -28
5 27 5 28 -84 0 c-75 0 -85 -2 -99 -22 l-16 -23 6 23 5 22 -221 0 c-143 0
-230 -4 -243 -11 -14 -8 -18 -8 -14 0 5 7 -64 11 -233 11 l-239 0 12 -25 c6
-14 16 -25 23 -25 7 0 17 -9 23 -20 9 -17 17 -20 48 -14 20 4 52 20 70 35 18
16 38 29 45 29 7 0 3 -6 -8 -12 -11 -6 -31 -21 -45 -33 -14 -13 -44 -26 -67
-30 -36 -6 -42 -4 -48 15 -5 17 -12 20 -30 16 -19 -5 -22 -3 -18 14 11 43 -9
49 -171 49 l-152 1 -11 -28 -12 -27 6 28 5 27 -157 0 -156 0 8 -22 c4 -13 8
-43 8 -68 0 -27 9 -62 23 -87 30 -58 20 -55 -12 3 -19 33 -25 57 -23 93 3 65
-12 81 -75 81 l-50 0 7 -95 c6 -71 4 -95 -4 -95 -8 0 -10 -8 -6 -22 5 -21 5
-21 -6 -4 -8 14 -8 24 1 41 9 16 10 43 4 96 l-9 74 -70 3 -71 3 -17 -48z"/>
<path d="M9015 201 c-66 -38 -95 -128 -59 -179 14 -20 23 -22 123 -22 l109 0
12 30 c47 113 -81 232 -185 171z"/>
</g>
</svg>
