<?xml version="1.0"?>
<svg xmlns="http://www.w3.org/2000/svg" height="512px" viewBox="0 0 512 512.00001" width="512px" class=""><g><script xmlns=""/><path d="m512 256c0 141.386719-114.617188 256-256 256-141.386719 0-256-114.613281-256-256 0-141.382812 114.613281-256 256-256 141.382812 0 256 114.617188 256 256zm0 0" fill="#fdd25d" data-original="#FDD25D" class="" style="fill:#00FFF2" data-old_color="#FDD25D"/><path d="m410.785156 459.921875c-42.976562 32.671875-96.613281 52.078125-154.78125 52.078125-58.167968 0-111.804687-19.40625-154.78125-52.078125 32.101563-15.683594 89.414063-26.121094 154.78125-26.121094 65.367188 0 122.691406 10.4375 154.78125 26.121094zm0 0" fill="#eaa339" data-original="#EAA339" class="active-path" style="fill:#00FF87" data-old_color="#00FF05"/><path d="m436.167969 150.21875c-35.816407-200.289062-324.519531-200.289062-360.335938 0-3.1875 17.832031-4.851562 36.1875-4.851562 54.9375 0 126.746094 76.058593 235.710938 185.019531 283.792969 108.960938-48.082031 185.019531-157.046875 185.019531-283.792969 0-18.75-1.664062-37.105469-4.851562-54.9375zm0 0" fill="#61b3ed" data-original="#61B3ED" class="" style="fill:#9800FF" data-old_color="#AF00FF"/><path d="m400.859375 183.796875c0 74.394531-56.078125 135.707031-128.273437 143.921875-5.441407.628906-10.96875.949219-16.578126.949219-80.003906 0-144.871093-64.867188-144.871093-144.871094 0-80 64.867187-144.855469 144.871093-144.855469 5.609376 0 11.136719.324219 16.578126.953125 72.199218 8.214844 128.273437 69.511719 128.273437 143.902344zm0 0" fill="#fcf8f2" data-original="#FCF8F2" class=""/><path d="m273.789062 29.519531c-5.863281-.679687-11.839843-1.023437-17.785156-1.023437-6.425781 0-12.765625.390625-18.988281 1.152344-16.5 2.019531-21.175781-22.027344-5.136719-26.398438 7.949219-2.167969 16.039063-3.25 24.125-3.25-81.125 0-162.261718 50.082031-180.171875 150.226562-3.1875 17.824219-4.847656 36.183594-4.847656 54.929688 0 126.746094 76.058594 235.707031 185.019531 283.792969-34.179687-22.261719-63.585937-57.566407-85.316406-101.640625-14.457031-29.335938 12.636719-62.390625 44.171875-53.71875 13.109375 3.605468 26.90625 5.53125 41.144531 5.53125 5.945313 0 11.921875-.347656 17.761719-1.023438 78.410156-8.914062 137.539063-75.253906 137.539063-154.300781 0-79.035156-59.128907-145.367187-137.515626-154.277344zm-2.40625 287.816407c-5.066406.585937-10.238281.886718-15.378906.886718-56.164062 0-104.386718-34.628906-124.46875-83.652344 0 0 .011719 0 0-.011718-6.40625-15.671875-9.945312-32.808594-9.945312-50.761719 0-24.910156 6.8125-48.253906 18.660156-68.273437 23.425781-39.550782 66.550781-66.132813 115.753906-66.132813 5.140625 0 10.3125.292969 15.402344.890625 67.84375 7.710938 119.003906 65.117188 119.003906 133.515625 0 68.410156-51.160156 125.816406-119.027344 133.539063zm0 0" fill="#498dd6" data-original="#498DD6" class="" style="fill:#410968" data-old_color="#390E57"/><g fill="#fc5f61"><path d="m204.054688 109.957031.042968.109375c.035156.097656.097656.253906.101563.316406v19.824219c0 2.230469 2.136719 3.789063 5.199219 3.789063 2.582031 0 5.195312-1.300782 5.195312-3.789063v-19.828125c0-.121094.027344-.277344.078125-.445312l16.191406-29.179688c.347657-.6875.347657-1.285156.347657-1.640625 0-2.785156-3.625-4.492187-6.21875-4.492187-2.195313 0-3.148438 1.402344-3.671876 2.445312l-11.925781 23.050782-12.019531-23.085938c-.667969-1.191406-1.628906-2.414062-3.652344-2.414062-2.628906 0-6.292968 1.710937-6.292968 4.492187 0 .53125.140624 1.082031.445312 1.683594zm0 0" data-original="#000000" class="" style="fill:#000000"/><path d="m252.417969 134.464844c12.046875 0 18.679687-6.578125 18.679687-18.519532v-22.804687c0-11.945313-6.632812-18.519531-18.679687-18.519531-11.992188 0-18.597657 6.574218-18.597657 18.519531v22.804687c0 11.941407 6.605469 18.519532 18.597657 18.519532zm8.285156-18.519532c0 6.015626-2.789063 9.0625-8.285156 9.0625-5.515625 0-8.199219-2.964843-8.199219-9.0625v-22.804687c0-6.101563 2.683594-9.066406 8.199219-9.066406 5.496093 0 8.285156 3.050781 8.285156 9.066406zm0 0" data-original="#000000" class="" style="fill:#000000"/><path d="m297.402344 134.464844c12.246094 0 18.992187-6.578125 18.992187-18.519532v-37.617187c0-2.21875-2.089843-3.707031-5.199219-3.707031-3.15625 0-5.199218 1.453125-5.199218 3.707031v37.617187c0 6.015626-2.894532 9.0625-8.59375 9.0625-5.652344 0-8.515625-3.046874-8.515625-9.0625v-37.617187c0-2.21875-2.089844-3.707031-5.199219-3.707031-3.15625 0-5.199219 1.453125-5.199219 3.707031v37.617187c0 11.941407 6.71875 18.519532 18.914063 18.519532zm0 0" data-original="#000000" class="" style="fill:#000000"/><path d="m211.472656 147.976562c-3.074218 0-5.527344 1.386719-6.25 3.558594l-15.585937 50.757813c-.132813.394531-.132813.75-.132813 1.035156 0 2.648437 3.277344 4.492187 6.21875 4.492187 2.722656 0 3.609375-1.539062 3.902344-2.476562l2.992188-10.375h17.785156l3.003906 10.394531c.496094 1.585938 1.851562 2.457031 3.816406 2.457031 2.972656 0 6.296875-1.921874 6.296875-4.492187 0-.40625-.117187-.753906-.203125-1.011719l-15.523437-50.804687c-.714844-2.148438-3.195313-3.535157-6.320313-3.535157zm6.445313 38.242188h-12.886719l6.441406-22.101562zm0 0" data-original="#000000" class="" style="fill:#000000"/><path d="m275.367188 165.476562c0-11.140624-6.59375-17.03125-19.066407-17.03125h-14.890625c-2.125 0-3.789062 1.628907-3.789062 3.710938v51.875c0 2.488281 2.574218 3.789062 5.121094 3.789062 3.058593 0 5.199218-1.558593 5.199218-3.789062v-20.816406h6.226563l11.160156 21.851562c1.300781 2.472656 3.007813 2.988282 4.214844 2.988282 2.726562 0 6.058593-2.433594 6.058593-5.277344 0-.28125-.042968-1.015625-.433593-1.664063l-10.367188-19.472656c6.828125-2.222656 10.566407-7.914063 10.566407-16.164063zm-10.394532.707032c0 5.648437-2.757812 8.28125-8.671875 8.28125h-8.359375v-16.5625h8.359375c5.914063 0 8.671875 2.628906 8.671875 8.28125zm0 0" data-original="#000000" class="" style="fill:#000000"/><path d="m314.054688 157.902344c2.195312 0 3.789062-2.023438 3.789062-4.808594 0-2.308594-1.300781-4.648438-3.789062-4.648438h-27.898438c-2.289062 0-4.726562 1.328126-4.726562 3.789063v51.800781c0 2.457032 2.4375 3.785156 4.726562 3.785156h27.898438c2.488281 0 3.789062-2.339843 3.789062-4.648437 0-2.785156-1.59375-4.808594-3.789062-4.808594h-22.230469v-15.933593h11.023437c2.460938 0 3.789063-2.195313 3.789063-4.257813 0-2.558594-1.59375-4.414063-3.789063-4.414063h-11.023437v-15.855468zm0 0" data-original="#000000" class="" style="fill:#000000"/><path d="m204.890625 222.269531c-3.109375 0-5.199219 1.492188-5.199219 3.710938v20.585937h-17.425781v-20.585937c0-2.253907-2.039063-3.710938-5.195313-3.710938-3.109374 0-5.199218 1.492188-5.199218 3.710938v51.878906c0 2.484375 2.613281 3.785156 5.199218 3.785156 3.058594 0 5.195313-1.554687 5.195313-3.785156v-22.621094h17.425781v22.621094c0 2.484375 2.613282 3.785156 5.199219 3.785156 3.058594 0 5.199219-1.554687 5.199219-3.785156v-51.878906c-.003906-2.253907-2.042969-3.710938-5.199219-3.710938zm0 0" data-original="#000000" class="" style="fill:#000000"/><path d="m250.96875 231.726562c2.195312 0 3.789062-2.019531 3.789062-4.804687 0-2.3125-1.300781-4.652344-3.789062-4.652344h-27.898438c-2.292968 0-4.726562 1.328125-4.726562 3.789063v51.800781c0 2.460937 2.433594 3.789063 4.726562 3.789063h27.898438c2.488281 0 3.789062-2.339844 3.789062-4.652344 0-2.785156-1.59375-4.804688-3.789062-4.804688h-22.230469v-15.933594h11.023438c2.460937 0 3.789062-2.195312 3.789062-4.257812 0-2.558594-1.59375-4.417969-3.789062-4.417969h-11.023438v-15.855469zm0 0" data-original="#000000" class="" style="fill:#000000"/><path d="m286.507812 255.464844c6.828126-2.222656 10.566407-7.914063 10.566407-16.164063 0-11.140625-6.59375-17.03125-19.066407-17.03125h-14.890624c-2.125 0-3.789063 1.628907-3.789063 3.710938v51.878906c0 2.484375 2.574219 3.785156 5.121094 3.785156 3.058593 0 5.199219-1.554687 5.199219-3.785156v-20.820313h6.226562l11.160156 21.855469c1.296875 2.46875 3.007813 2.984375 4.214844 2.984375 2.726562 0 6.058594-2.433594 6.058594-5.273437 0-.285157-.042969-1.019531-.433594-1.667969zm.167969-15.457032c0 5.648438-2.753906 8.28125-8.667969 8.28125h-8.359374v-16.5625h8.359374c5.914063 0 8.667969 2.632813 8.667969 8.28125zm0 0" data-original="#000000" class="" style="fill:#000000"/><path d="m335.761719 272.191406h-22.226563v-15.9375h11.023438c2.457031 0 3.785156-2.191406 3.785156-4.257812 0-2.554688-1.589844-4.414063-3.785156-4.414063h-11.023438v-15.855469h22.226563c2.195312 0 3.789062-2.023437 3.789062-4.804687 0-2.3125-1.300781-4.652344-3.789062-4.652344h-27.898438c-2.289062 0-4.726562 1.328125-4.726562 3.789063v51.800781c0 2.460937 2.4375 3.785156 4.726562 3.785156h27.898438c2.488281 0 3.789062-2.335937 3.789062-4.648437 0-2.785156-1.59375-4.804688-3.789062-4.804688zm0 0" data-original="#000000" class="" style="fill:#000000"/></g></g> </svg>
